<?xml version="1.0" encoding="utf-8"?>
<!-- Generator: Adobe Illustrator 16.0.0, SVG Export Plug-In . SVG Version: 6.00 Build 0)  -->
<!DOCTYPE svg PUBLIC "-//W3C//DTD SVG 1.1//EN" "http://www.w3.org/Graphics/SVG/1.1/DTD/svg11.dtd">
<svg version="1.1" id="Capa_1" xmlns="http://www.w3.org/2000/svg" xmlns:xlink="http://www.w3.org/1999/xlink" x="0px" y="0px"
	 width="20.325px" height="15.116px" viewBox="0 0 20.325 15.116" enable-background="new 0 0 20.325 15.116" xml:space="preserve">
<g>
	<path fill="#5FA5A0" d="M0.308,14.128c1.348-0.938,2.366-1.75,3.054-2.439c1.23-1.23,1.846-2.387,1.846-3.471
		c0-0.293-0.073-0.541-0.22-0.748C4.827,7.281,4.6,7.186,4.307,7.186C3.823,7.258,3.501,7.294,3.34,7.294
		c-0.967,0-1.765-0.321-2.395-0.967C0.315,5.684,0,4.82,0,3.736C0,2.74,0.319,1.868,0.956,1.121C1.593,0.374,2.527,0,3.757,0
		c1.201,0,2.256,0.439,3.164,1.318S8.284,3.501,8.284,5.23c0,2.344-0.916,4.482-2.747,6.416c-1.143,1.201-2.71,2.359-4.702,3.471
		L0.308,14.128z M12.349,14.128c1.421-1.01,2.469-1.859,3.143-2.549c1.172-1.201,1.758-2.328,1.758-3.383
		c0-0.352-0.096-0.608-0.286-0.769s-0.396-0.242-0.615-0.242c-0.498,0.073-0.827,0.109-0.989,0.109
		c-0.951,0-1.742-0.321-2.373-0.967c-0.629-0.644-0.944-1.486-0.944-2.526c0-1.172,0.345-2.098,1.032-2.779
		C13.763,0.341,14.663,0,15.776,0c1.304,0,2.388,0.469,3.252,1.406c0.864,0.939,1.297,2.234,1.297,3.89
		c0,2.343-0.96,4.505-2.879,6.48c-1.143,1.158-2.666,2.271-4.57,3.34L12.349,14.128z"/>
</g>
</svg>
