<?xml version="1.0" encoding="utf-8"?>
<!-- Generator: Adobe Illustrator 16.0.0, SVG Export Plug-In . SVG Version: 6.00 Build 0)  -->
<!DOCTYPE svg PUBLIC "-//W3C//DTD SVG 1.1//EN" "http://www.w3.org/Graphics/SVG/1.1/DTD/svg11.dtd">
<svg version="1.1" id="Capa_1" xmlns="http://www.w3.org/2000/svg" xmlns:xlink="http://www.w3.org/1999/xlink" x="0px" y="0px"
	 width="27.216px" height="20.156px" viewBox="0 0 27.216 20.156" enable-background="new 0 0 27.216 20.156" xml:space="preserve">
<g>
	<path fill="#5FA5A0" d="M2.153,6.401C3.589,4.067,6.182,1.934,9.932,0l0.703,1.319C8.76,2.646,7.373,3.76,6.475,4.658
		C4.893,6.279,4.102,7.832,4.102,9.316c0,0.508,0.146,0.84,0.439,0.996c0.293,0.176,0.546,0.263,0.762,0.263
		c0.742-0.098,1.23-0.146,1.465-0.146c1.25,0,2.275,0.455,3.076,1.363c0.801,0.908,1.201,2.006,1.201,3.295
		c0,1.445-0.439,2.652-1.318,3.619s-2.09,1.449-3.633,1.449c-1.816,0-3.286-0.648-4.409-1.947C0.561,16.91,0,15.175,0,13.007
		C0,10.937,0.718,8.735,2.153,6.401z M18.457,6.24C19.98,3.916,22.529,1.836,26.103,0l0.703,1.319
		c-1.758,1.23-3.105,2.314-4.043,3.251c-1.66,1.66-2.49,3.203-2.49,4.629c0,0.41,0.107,0.742,0.322,0.996
		c0.215,0.253,0.508,0.38,0.879,0.38c0.742-0.098,1.23-0.146,1.465-0.146c1.23,0,2.252,0.449,3.063,1.348
		c0.81,0.898,1.215,2.002,1.215,3.311c0,1.523-0.449,2.75-1.348,3.678s-2.119,1.391-3.662,1.391c-1.758,0-3.203-0.648-4.336-1.947
		s-1.699-3.033-1.699-5.201C16.171,10.821,16.933,8.564,18.457,6.24z"/>
</g>
</svg>
