<?xml version="1.0" encoding="utf-8"?>
<!-- Generator: Adobe Illustrator 16.0.0, SVG Export Plug-In . SVG Version: 6.00 Build 0)  -->
<!DOCTYPE svg PUBLIC "-//W3C//DTD SVG 1.1//EN" "http://www.w3.org/Graphics/SVG/1.1/DTD/svg11.dtd">
<svg version="1.1" id="Capa_1" xmlns="http://www.w3.org/2000/svg" xmlns:xlink="http://www.w3.org/1999/xlink" x="0px" y="0px"
	 width="13.585px" height="15px" viewBox="0 0 13.585 15" enable-background="new 0 0 13.585 15" xml:space="preserve">
<g id="Icon_33_">
	<g>
		<g>
			<path fill="#989897" d="M11.314,10.628c-0.568,0-1.098,0.189-1.477,0.564L4.427,8.065c0.038-0.188,0.076-0.339,0.076-0.527
				S4.465,7.198,4.427,7.01l5.336-3.09c0.416,0.377,0.945,0.604,1.551,0.604c1.248,0,2.271-1.019,2.271-2.262
				C13.585,1.018,12.563,0,11.314,0S9.044,1.018,9.044,2.262c0,0.188,0.038,0.339,0.075,0.527L3.784,5.88
				C3.368,5.503,2.838,5.276,2.232,5.276C0.984,5.276,0,6.295,0,7.538c0,1.243,1.021,2.26,2.27,2.26
				c0.606,0,1.136-0.225,1.552-0.602l5.374,3.127c-0.038,0.15-0.076,0.303-0.076,0.49c0,1.207,0.984,2.186,2.195,2.186
				s2.195-0.979,2.195-2.186C13.51,11.609,12.525,10.628,11.314,10.628z"/>
		</g>
	</g>
</g>
</svg>
