<?xml version="1.0" encoding="utf-8"?>
<!-- Generator: Adobe Illustrator 16.0.0, SVG Export Plug-In . SVG Version: 6.00 Build 0)  -->
<!DOCTYPE svg PUBLIC "-//W3C//DTD SVG 1.1//EN" "http://www.w3.org/Graphics/SVG/1.1/DTD/svg11.dtd">
<svg version="1.1" id="Capa_1" xmlns="http://www.w3.org/2000/svg" xmlns:xlink="http://www.w3.org/1999/xlink" x="0px" y="0px"
	 width="31px" height="31px" viewBox="0 0 31 31" enable-background="new 0 0 31 31" xml:space="preserve">
<g>
	<circle fill="none" stroke="#989897" stroke-miterlimit="10" cx="15.5" cy="15.5" r="15"/>
	<g>
		<path fill="#989897" d="M14.915,9.76c0.431,0.351,1.328,1.084,1.328,2.48c0,1.36-0.784,2.002-1.572,2.607
			c-0.245,0.24-0.525,0.496-0.525,0.9c0,0.405,0.281,0.628,0.485,0.792l0.674,0.514c0.824,0.678,1.572,1.305,1.572,2.574
			c0,1.729-1.703,3.473-4.923,3.473c-2.713,0.002-4.022-1.266-4.022-2.627c0-0.66,0.335-1.598,1.44-2.242
			c1.16-0.697,2.735-0.791,3.574-0.846c-0.262-0.332-0.562-0.682-0.562-1.251c0-0.313,0.095-0.496,0.186-0.719
			c-0.205,0.019-0.412,0.037-0.598,0.037c-1.984,0-3.107-1.451-3.107-2.885c0-0.846,0.394-1.783,1.2-2.462
			c1.068-0.86,2.341-1.006,3.352-1.006h3.854L16.075,9.76H14.915z M13.584,17.921c-0.149-0.018-0.244-0.018-0.43-0.018
			c-0.168,0-1.178,0.037-1.966,0.291c-0.412,0.146-1.608,0.588-1.608,1.893c0,1.307,1.291,2.244,3.293,2.244
			c1.798,0,2.75-0.848,2.75-1.984C15.623,19.41,15.006,18.914,13.584,17.921 M14.127,14.428c0.43-0.423,0.467-1.01,0.467-1.342
			c0-1.323-0.806-3.381-2.359-3.381c-0.485,0-1.01,0.237-1.309,0.605c-0.317,0.387-0.412,0.883-0.412,1.36
			c0,1.233,0.729,3.271,2.341,3.271C13.321,14.946,13.825,14.724,14.127,14.428"/>
		<polygon fill="#989897" points="24.269,11.956 21.413,11.956 21.413,9.104 20.769,9.104 20.769,11.956 17.862,11.956 
			17.862,12.604 20.769,12.604 20.769,15.555 21.413,15.555 21.413,12.604 24.269,12.604 		"/>
	</g>
</g>
</svg>
