<?xml version="1.0" encoding="utf-8"?>
<!-- Generator: Adobe Illustrator 16.0.0, SVG Export Plug-In . SVG Version: 6.00 Build 0)  -->
<!DOCTYPE svg PUBLIC "-//W3C//DTD SVG 1.1//EN" "http://www.w3.org/Graphics/SVG/1.1/DTD/svg11.dtd">
<svg version="1.1" id="Capa_1" xmlns="http://www.w3.org/2000/svg" xmlns:xlink="http://www.w3.org/1999/xlink" x="0px" y="0px"
	 width="33px" height="33px" viewBox="0 0 33 33" enable-background="new 0 0 33 33" xml:space="preserve">
<g>
	<g>
		<g>
			<path fill="none" stroke="#FFFFFF" stroke-miterlimit="10" d="M0.5,16.5c0-8.818,7.182-16,16-16s16,7.174,16,16s-7.182,16-16,16
				S0.5,25.317,0.5,16.5z"/>
		</g>
	</g>
	<g>
		<path fill="#FFFFFF" d="M16.514,22.132c1.176,0,2.072,0.924,2.072,2.185c0,1.26-0.896,2.184-2.072,2.184s-2.1-0.924-2.1-2.184
			C14.415,23.056,15.338,22.132,16.514,22.132z M14.974,10.596L14.89,7.404h3.248l-0.112,3.191l-0.447,9.549h-2.156L14.974,10.596z"
			/>
	</g>
</g>
</svg>
