<svg version="1.1" id="Layer_1" xmlns="http://www.w3.org/2000/svg" xmlns:xlink="http://www.w3.org/1999/xlink" x="0" y="0" width="60" height="60" viewBox="0 0 60 60" enable-background="new 0 0 60 60" xml:space="preserve">
  <path d="M37.76 55.63c-1.32 1.5-3.01 1.94-4.89 1.88 -2.76-0.12-5.33-1.06-7.77-2.26 -5.51-2.69-10.15-6.39-14.1-11.03 -2.88-3.45-5.26-7.21-6.83-11.47 -0.75-2.07-1.32-4.14-1.13-6.39 0.13-1.38 0.63-2.51 1.63-3.51 1.07-1 2.13-2.13 3.2-3.2 1.38-1.38 3.13-1.38 4.58 0 0.88 0.88 1.69 1.69 2.57 2.57 0.82 0.82 1.69 1.63 2.51 2.51 1.44 1.5 1.44 3.2 0 4.64 -1.06 1.07-2.07 2.13-3.13 3.13 -0.25 0.25-0.31 0.5-0.19 0.82 0.69 1.69 1.69 3.13 2.82 4.58 2.26 2.82 4.89 5.33 7.96 7.21 0.69 0.44 1.38 0.69 2.07 1.07 0.38 0.19 0.63 0.13 0.88-0.19 1.07-1.06 2.13-2.13 3.2-3.2 1.38-1.38 3.13-1.38 4.51 0 1.69 1.69 3.38 3.38 5.08 5.08 1.44 1.44 1.44 3.2 0 4.64C39.7 53.68 38.7 54.62 37.76 55.63zM52.92 32.06c-5.7 5.7-14.41 6.58-21.06 2.7h-0.06c-2.63 2.01-5.39 2.32-7.39 2.01 -0.63-0.12-0.81-1-0.19-1.25 1.82-0.88 2.88-2.63 3.57-4.01l-0.19-0.12c-6.02-6.83-5.77-17.23 0.75-23.75 6.83-6.83 17.8-6.83 24.57-0.06S59.69 25.29 52.92 32.06zM38.57 11.94c0 1.57 1.25 2.88 2.82 2.88 1.5 0 2.82-1.25 2.82-2.82s-1.25-2.88-2.76-2.88C39.83 9.12 38.57 10.38 38.57 11.94zM44.78 27.61c-0.25 0.13-0.5 0.31-0.81 0.38 -0.31 0.13-0.69 0.25-1.06 0.31 -0.44 0.06-0.75-0.19-0.88-0.63 -0.06-0.31-0.12-0.63-0.06-1 0.06-0.69 0.19-1.32 0.31-2.01 0.38-2.01 0.75-4.01 1.13-6.02 0.13-0.56 0.19-1.13 0.19-1.63 0-0.69-0.44-0.94-1.06-1 -0.94 0-1.82 0-2.76 0 -0.88 0-1.75 0-2.57 0 -0.19 0-0.44 0-0.63 0.06 -0.38 0.06-0.56 0.25-0.63 0.56s0.13 0.56 0.5 0.69c0.31 0.13 0.63 0.13 0.94 0.19 0.75 0.13 0.94 0.38 0.94 1.13 0 0.13 0 0.25 0 0.31 -0.31 1.76-0.63 3.51-0.94 5.26 -0.19 1-0.31 2.01-0.44 3.07 -0.19 1.5 1.25 2.88 2.38 3.07 0.69 0.13 1.38 0.13 2.07 0.13 1.5 0 2.7-0.63 3.76-1.69 0.19-0.19 0.31-0.44 0.38-0.69C45.53 27.74 45.15 27.42 44.78 27.61z"/>
</svg>
