<svg version="1.1" id="Layer_1" xmlns="http://www.w3.org/2000/svg" xmlns:xlink="http://www.w3.org/1999/xlink" x="0" y="0" width="60" height="60" viewBox="0 0 60 60" enable-background="new 0 0 60 60" xml:space="preserve">
  <rect x="18.51" y="11.78"width="16.77" height="3.44"/>
  <rect x="27.27" y="8.42" width="6.69" height="2.67"/>
  <path d="M42.02 23.81v16.36H37.66V16.02H16.01v31.17H5v10.32h11.01 1.97 7.66 24.33 5.03V23.81H42.02zM18.63 18.65H35.04v2.47H18.63V18.65zM18.63 22.74H35.04v2.52H18.63V22.74zM18.63 26.87H35.04v2.49H18.63V26.87zM18.63 30.99H35.04v2.46H18.63V30.99zM18.63 35.07H35.04v2.41H18.63V35.07zM25.65 53.86H18.63v-2.41h7.01L25.65 53.86 25.65 53.86zM25.65 49.82H18.63v-2.46h7.01L25.65 49.82 25.65 49.82zM25.65 45.74H18.63v-2.49h7.01L25.65 45.74 25.65 45.74zM30.61 46.23h-2.49v-3.35h2.49V46.23zM34.83 46.23h-2.49v-3.35h2.49V46.23zM25.65 40.17v1.46H18.63v-2.52h16.41v1.06L25.65 40.17 25.65 40.17zM39.05 46.23h-2.49v-3.35h2.49V46.23zM43.26 46.23H40.77v-3.35h2.49V46.23zM47.48 46.23h-2.49v-3.35h2.49V46.23z"/>
</svg>
