<svg version="1.1" id="Layer_1" xmlns="http://www.w3.org/2000/svg" xmlns:xlink="http://www.w3.org/1999/xlink" x="0" y="0" width="60" height="60" viewBox="0 0 60 60" enable-background="new 0 0 60 60" xml:space="preserve">
  <path d="M42.46 48.78C43.98 49.31 40.96 48.26 42.46 48.78L42.46 48.78z"/>
  <path d="M42.46 48.78c-1.81-0.63-3.76-0.67-5.57-1.3 -0.55-0.19-1.63-0.41-1.86-1.04 -0.21-0.62-0.21-1.34-0.25-1.98 -0.03-0.51-0.04-1.02-0.04-1.53 0-0.33 0.86-1.04 1.04-1.35 0.72-1.2 0.79-2.82 0.92-4.19 1.17 0.32 1.31-1.83 1.51-2.49 0.15-0.45 1.04-3.59-0.35-3.16 0.34-0.59 0.47-1.31 0.56-1.97 0.27-1.71 0.38-3.59-0.15-5.26 -1.08-3.48-4.42-5.43-7.94-5.54 -3.57-0.12-7.16 1.59-8.5 5.06 -0.64 1.69-0.59 3.52-0.37 5.29 0.09 0.8 0.23 1.7 0.63 2.42 -1.3-0.39-0.6 2.37-0.45 2.85 0.21 0.68 0.4 3.13 1.62 2.8 0.11 1.08 0.23 2.19 0.52 3.25 0.2 0.71 0.62 1.31 1.1 1.86 0.24 0.27 0.36 0.3 0.35 0.64 -0.01 1.04 0.01 2.17-0.25 3.19 -0.27 1.02-2.5 1.45-3.4 1.63 -2.41 0.5-4.63 0.72-6.64 2.22 -2.34 1.73-3.56 4.42-3.56 7.32 11.15 0 22.3 0 33.45 0 1.26 0 2.5 0 3.76 0C48.59 53.56 46.21 50.08 42.46 48.78z"/>
  <path d="M14.9 47.14c0.08-0.04 0.16-0.08 0.21-0.11 -0.04 0.01-0.08 0.04-0.11 0.05C14.97 47.1 14.94 47.11 14.9 47.14z"/>
  <path d="M14.9 47.14c-0.45 0.23-1 0.51 0.11-0.05 0.4-0.2 0.32-0.16 0.11-0.05 0.91-0.43 1.89-0.53 2.87-0.63 0.38-0.04 0.55-0.29 0.27-0.66 -0.53-0.68-2.38-0.82-3.16-1.12 -0.48-0.19-0.62-0.36-0.66-0.9 -0.01-0.24-0.15-1.31 0.04-1.49 0.13-0.13 0.98-0.08 1.17-0.11 0.76-0.09 1.54-0.25 2.26-0.53 0.31-0.12 0.6-0.27 0.87-0.45 0.32-0.24-0.24-0.83-0.39-1.15 -0.45-1-0.66-2.1-0.72-3.2 -0.13-2.15 0.2-4.32-0.2-6.47 -0.6-3.28-3.13-4.93-6.36-4.93 -1.99 0-3.96 0.68-5.07 2.42 -1.23 1.91-1.16 4.3-1.1 6.48 0.04 1.25 0.09 2.5-0.08 3.75 -0.08 0.54-0.2 1.06-0.39 1.57 -0.15 0.39-0.9 1.35-0.6 1.55 1.11 0.79 2.99 1.06 4.32 0.95 0.04 0.66 0.16 1.5-0.08 2.12 -0.37 0.96-3.17 1.22-4.02 1.5C1.74 46.51 0 48.41 0 51.09c2.45 0 4.89 0 7.34 0 1.1 0 2.19 0 3.31 0 0.17 0 0.84-1.25 1.03-1.45C12.58 48.64 13.7 47.77 14.9 47.14z"/>
  <path d="M55.86 45.72c-1.08-0.35-3.17-0.45-3.95-1.39 -0.39-0.47-0.17-1.66-0.13-2.22 0.59 0.05 1.23-0.04 1.83-0.12 0.55-0.08 1.08-0.19 1.61-0.37 0.24-0.09 0.48-0.19 0.71-0.32 0.52-0.31 0.28-0.36 0.01-0.82 -1.46-2.45-0.8-5.56-0.87-8.25 -0.05-2.24-0.64-4.68-2.68-5.94 -1.83-1.14-4.55-1.18-6.52-0.37 -5.68 2.28-2.33 9.8-4.27 14.11 -0.33 0.72-0.82 0.98 0.03 1.41 0.47 0.24 0.98 0.4 1.49 0.52 0.78 0.19 1.58 0.3 2.38 0.32 0.13 0 0.04 1.69 0 1.86 -0.15 0.66-1.58 0.84-2.12 0.99 -0.55 0.15-1.46 0.19-1.73 0.76 -0.4 0.86 1.33 0.64 1.75 0.72 1.38 0.25 2.6 1.02 3.67 1.89 0.8 0.66 1.89 1.54 2.18 2.61 3.57 0 7.16 0 10.74 0C59.97 48.41 58.22 46.5 55.86 45.72z"/>
</svg>
