<svg version="1.1" id="Layer_1" xmlns="http://www.w3.org/2000/svg" xmlns:xlink="http://www.w3.org/1999/xlink" x="0" y="0" width="40" height="40" viewBox="0 0 40 40" enable-background="new 0 0 40 40" xml:space="preserve">
  <path d="M20 0C8.95 0 0 8.95 0 20s8.95 20 20 20 20-8.95 20-20S31.05 0 20 0zM29 27.01C29 28.31 28.41 29 27.11 29H12.99C11.69 29 11 28.31 11 27.01V20h3.54c0 1.42 0.57 2.83 1.61 3.86 1.04 1.04 2.42 1.6 3.88 1.6 1.47 0 2.84-0.56 3.88-1.6 1.03-1.03 1.61-2.44 1.61-3.86H29V27.01zM16.06 19.97c0-2.16 1.76-3.92 3.92-3.92 2.17 0 3.92 1.76 3.92 3.92 0 2.17-1.75 3.92-3.92 3.92C17.81 23.89 16.06 22.13 16.06 19.97zM29 18h-3.71c-0.26 0-0.73-1.46-1.38-2.11 -1.04-1.04-2.41-1.51-3.88-1.51 -1.47 0-2.84 0.42-3.88 1.45C15.49 16.49 15.02 18 14.76 18H11v-5.11C11 11.6 11.69 11 12.99 11h14.11C28.41 11 29 11.6 29 12.89V18z"/>
  <path d="M28 12.63C28 12.28 27.72 12 27.37 12h-1.75C25.28 12 25 12.28 25 12.63v1.75C25 14.72 25.28 15 25.63 15h1.75C27.72 15 28 14.72 28 14.37V12.63z"/>
</svg>
