<?xml version="1.0" encoding="utf-8"?>
<!-- Generator: Adobe Illustrator 16.0.0, SVG Export Plug-In . SVG Version: 6.00 Build 0)  -->
<!DOCTYPE svg PUBLIC "-//W3C//DTD SVG 1.1//EN" "http://www.w3.org/Graphics/SVG/1.1/DTD/svg11.dtd">
<svg version="1.1" id="Capa_1" xmlns="http://www.w3.org/2000/svg" xmlns:xlink="http://www.w3.org/1999/xlink" x="0px" y="0px"
	 width="147.607px" height="47.999px" viewBox="0 0 147.607 47.999" enable-background="new 0 0 147.607 47.999"
	 xml:space="preserve">
<path fill="#7C7C7B" d="M28.662,17.581l2.812-0.504c0,0-0.179-0.325-0.216-0.953c-0.038-0.625,0.042-0.738,0.042-0.738l-0.985,0.153
	l-0.03-0.813c0.111,0.049,0.151,0.037,0.243,0.042c0.119,0.005,0.201,0.04,0.32,0.161c0.122,0.122,0.196,0.176,0.196,0.176
	c-0.044-0.156-0.02-0.409-0.02-0.409c0.005-0.246-0.121-0.422-0.397-0.372c-0.188,0.027-0.347-0.077-0.397-0.139
	c-0.015-0.027-0.01-0.214-0.015-0.262c-0.014-0.066-0.037,0-0.037,0v1.637l-1.469,0.215c0,0-0.122,0.601-0.109,1.024
	C28.612,17.225,28.662,17.581,28.662,17.581"/>
<path fill="#7C7C7B" d="M32.245,21.34c0,0-0.318-0.586-0.243-1.409c0.079-0.824,0.65-1.675,0.65-1.675l-4.333,0.285
	c0,0-0.228,0.235-0.317,1.169c-0.092,0.938,0.042,1.651,0.042,1.651L32.245,21.34z"/>
<path fill="#7C7C7B" d="M31.88,24.556c0,0-0.139-0.407-0.007-1.308c0.129-0.906,0.692-1.385,0.692-1.385l-5.462,0.058
	c0,0-0.238,0.717-0.238,1.352s0.471,1.109,0.471,1.109L31.88,24.556z"/>
<path fill="#7C7C7B" d="M31.757,17.172c0.107,0.047,0.194,0.055,0.283,0.06c0.089,0,0.154,0.02,0.275,0.142
	c0.122,0.123,0.196,0.176,0.196,0.176c-0.042-0.156,0.01-0.538,0.01-0.538c-0.136-0.196-0.253-0.296-0.424-0.246
	c-0.127,0.04-0.347-0.072-0.395-0.136c-0.022-0.025-0.012-0.211-0.022-0.26c-0.012-0.068-0.035,0-0.035,0v1.686l0.134-0.007
	L31.757,17.172z"/>
<polygon fill="#7C7C7B" points="33.388,21.291 32.884,22.286 33.75,22.175 33.284,19.254 32.844,19.339 32.663,20.293 
	32.807,21.271 "/>
<polygon fill="#7C7C7B" points="27.225,27.374 24.349,27.319 24.349,27.58 27.302,27.523 "/>
<polygon fill="#7C7C7B" points="27.68,28.231 24.35,28.11 24.35,28.373 27.689,28.249 "/>
<polygon fill="#7C7C7B" points="24.35,28.9 24.35,29.164 28.626,29.032 "/>
<polygon fill="#7C7C7B" points="26.8,26.575 24.351,26.528 24.351,26.786 26.889,26.739 "/>
<polygon fill="#7C7C7B" points="24.35,29.693 24.35,29.954 29.263,29.825 "/>
<path fill="#7C7C7B" d="M33.996,27.478l3.933,0.103c0.015-0.09,0.035-0.174,0.05-0.258l-3.928,0.099L33.996,27.478z"/>
<path fill="#7C7C7B" d="M35.904,29.115l-0.067,0.012l-0.099,0.174l-1.566,0.236l-0.077,0.017L33.5,29.589l-0.392,0.199l-1.838,0.037
	l1.699,0.032l-0.883,0.448l-0.147,0.276l-1.913,0.029l-5.675-0.129v0.266l5.675-0.132l1.871,0.033h0.003l-0.377,0.691l-2.105,0.032
	l-5.067-0.097v0.261l5.065-0.097l0.419,0.005c0.013-0.018,0.023-0.03,0.04-0.03h1.605l-0.394,0.725l-1.596,0.025l-5.139-0.099v0.263
	l5.132-0.103l1.543,0.025l-0.36,0.657l-1.012,0.024l-5.303-0.202v0.516l5.303-0.204l0.926,0.021l-0.033,0.062l-1.141,0.534
	L29.4,33.671l-0.357,0.01l-4.693-0.221v0.64l4.693-0.223l0.275,0.008l-0.189,0.472l-4.779-0.109v0.645l4.606-0.102l-0.139,0.354
	l-4.467-0.078v0.513l4.323-0.077l-0.119,0.303l-4.204-0.111v0.771l3.985-0.108l-0.104,0.263l-3.881-0.069v0.517l3.73-0.067
	l-0.1,0.248l-3.63-0.109v0.676v0.223v0.472c0.615,0.009,1.926-0.05,3.593-0.544l0.01-0.04h-0.02h0.02l0.04-0.114
	c0.01,0,0.027,0.004,0.037,0.004l1.695-3.711l1.035-0.474l1.407-2.789l0.372,0.06l-1.432,3.945l0.37,0.03l1.037-2.968l1.752-0.028
	l-0.608,0.328l-0.538,3.057c0.221-0.171,0.439-0.352,0.655-0.541l0.305-2.223l2.037-0.472c0.013-0.018,0.025-0.034,0.038-0.055
	l-1.492-0.362l-0.504-0.269l-1.461,0.087l0.451-0.918l-0.531-0.115l1.06-0.442l0.243-0.035l0.003,0.01l1.814-0.261
	c0,0,0.007-0.007,0.012-0.014l0.429-0.065v-0.007l0.211-0.033l0.663,0.061c0.015-0.133,0.025-0.259,0.032-0.391l-0.657-0.028
	l-0.561,0.084v0.005l-0.025,0.002c0.045-0.074,0.087-0.146,0.099-0.166l1.549,0.037c0.027-0.082,0.054-0.164,0.082-0.243
	l-5.368,0.122L35.904,29.115z"/>
<path fill="#7C7C7B" d="M37.733,28.36c0.025-0.082,0.045-0.161,0.067-0.243l-4.817,0.124L37.733,28.36z"/>
<path fill="#7C7C7B" d="M34.195,26.727l3.879,0.07c0.017-0.097,0.032-0.187,0.039-0.276l-3.933,0.067L34.195,26.727z"/>
<path fill="#7C7C7B" d="M32.055,25.66h-2.06l-1.541-0.039l-0.935-0.146l-1.767-1.253l-0.065,0.052l0.772,1.131l0.224,0.375
	l-2.333-0.044v0.264l2.434-0.046l0.377,0.625l0.626,1.304l5.596-0.325l0.469-0.438l-0.085-0.888l-0.953-0.317l1.224,0.02h0.069
	v0.005l4.07,0.067c0.01-0.104,0.017-0.194,0.022-0.275l-5.65,0.094L32.055,25.66z"/>
<path fill="#7C7C7B" d="M23.194,36.739c-0.638,0.062-1.261,0.184-1.826,0.496c-0.321,0.177-0.593,0.401-0.79,0.705
	c-0.109,0.164-0.141,0.261,0.125,0.314c0.603,0.127,1.208,0.191,1.814,0.241c0.923,0.079,0.925,0.064,0.925-0.834v-0.035
	c-0.002-0.213-0.012-0.429,0.005-0.645C23.452,36.794,23.402,36.719,23.194,36.739"/>
<path fill="#7C7C7B" d="M15.593,24.893c0.221-0.022,0.447-0.027,0.663-0.077c0.99-0.228,1.764-1.129,1.945-2.241
	c0.092-0.548,0.092-0.548-0.432-0.662c-0.516-0.111-0.516-0.111-0.533,0.414c-0.035,0.854-0.757,1.566-1.603,1.581
	c-0.911,0.016-1.663-0.647-1.737-1.516c-0.013-0.191,0.114-0.464-0.067-0.551c-0.147-0.077-0.385,0.044-0.584,0.082
	c-0.042,0.005-0.081,0.026-0.121,0.031c-0.194,0.021-0.228,0.142-0.226,0.318C12.908,23.719,14.179,24.954,15.593,24.893"/>
<path fill="#7C7C7B" d="M22.565,24.195c-0.027-0.002-0.06-0.024-0.082-0.047c-0.198-0.179-0.246-0.069-0.236,0.131
	c0.018,0.489-0.072,0.969-0.136,1.447c-0.112,0.802-0.32,1.586-0.42,2.393c-0.126,1.076,0.134,1.973,1.1,2.559
	c0.082,0.049,0.164,0.146,0.253,0.104c0.097-0.047,0.045-0.176,0.045-0.266c0.002-0.97,0.002-1.945,0.002-2.918
	c0-0.844-0.012-1.685,0.005-2.531C23.106,24.64,23.133,24.246,22.565,24.195"/>
<path fill="#7C7C7B" d="M23.012,34.391c-0.799-0.026-1.591,0.117-2.442,0.063c0.295,0.223,0.534,0.406,0.777,0.583
	c0.499,0.359,1.067,0.556,1.66,0.692c0.181,0.037,0.347,0.018,0.32-0.254c-0.025-0.258-0.025-0.521,0-0.779
	C23.349,34.44,23.238,34.398,23.012,34.391"/>
<path fill="#7C7C7B" d="M22.317,34.022c0.278-0.015,0.558-0.032,0.836-0.05c0.062,0,0.142,0.013,0.154-0.069
	c0.003-0.03-0.037-0.084-0.069-0.097c-0.293-0.121-0.517-0.348-0.792-0.499c-0.216-0.119-0.437-0.111-0.64,0.018
	c-0.477,0.303-1,0.499-1.427,0.707C20.972,34.032,21.644,34.06,22.317,34.022"/>
<path fill="#7C7C7B" d="M20.433,29.455c0.092,0.547,0.707,1.022,1.412,1.051c-0.566-0.606-0.653-1.338-0.606-2.115
	C20.604,28.672,20.357,29.012,20.433,29.455"/>
<path fill="#7C7C7B" d="M23.083,31.145c-0.005-0.33-0.285-0.06-0.422-0.15c-0.114-0.08-0.131,0.062-0.149,0.16
	c-0.097,0.472-0.039,0.948-0.074,1.423c-0.032,0.466,0.161,0.694,0.65,0.867C23.089,32.676,23.101,31.908,23.083,31.145"/>
<path fill="#7C7C7B" d="M16.779,22.065c-0.008-0.223-0.127-0.352-0.333-0.367c-0.211-0.015-0.347,0.107-0.364,0.32
	c-0.015,0.229,0.119,0.372,0.34,0.382C16.633,22.405,16.748,22.269,16.779,22.065"/>
<path fill="#7C7C7B" d="M16.013,22.517c-0.008-0.14-0.075-0.229-0.208-0.236c-0.134-0.012-0.221,0.072-0.231,0.206
	c-0.013,0.137,0.072,0.226,0.203,0.236C15.911,22.729,15.985,22.648,16.013,22.517"/>
<path fill="#7C7C7B" d="M21.676,23.021c-0.124-0.578-0.39-1.066-0.772-1.496c-0.588-0.662-1.32-1.121-2.112-1.477
	c-1.32-0.593-2.685-0.901-4.126-0.595c-1.085,0.229-2.035,0.756-2.876,1.471c-0.556,0.474-1.043,1.015-1.388,1.675l0.01,0.005
	c0.484-0.153,0.919-0.434,1.38-0.643c1.663-0.767,3.392-1.054,5.189-0.732c1.551,0.276,3.005,0.856,4.362,1.673
	C21.43,22.958,21.512,23.039,21.676,23.021"/>
<path fill="#7C7C7B" d="M12.698,22.207c-0.005-0.097-0.042-0.136-0.137-0.104c-0.781,0.253-1.541,0.546-2.208,1.047
	c-0.161,0.124-0.169,0.221,0,0.35c0.566,0.43,1.196,0.739,1.864,0.958c0.652,0.211,1.315,0.365,2.007,0.407
	c-0.002-0.037,0-0.055-0.005-0.057C13.261,24.212,12.718,23.368,12.698,22.207"/>
<path fill="#7C7C7B" d="M18.702,22.125c-0.206-0.064-0.263-0.042-0.273,0.199c-0.04,0.949-0.452,1.709-1.211,2.274
	c-0.087,0.063-0.179,0.129-0.32,0.233c1.531-0.196,2.839-0.747,4.03-1.688C20.211,22.678,19.474,22.363,18.702,22.125"/>
<path fill="#7C7C7B" d="M21.521,36.801c0.439-0.174,0.898-0.251,1.362-0.305c0.085-0.008,0.206,0.042,0.206-0.119
	c0.005-0.139-0.099-0.152-0.183-0.187c-0.028-0.013-0.065-0.01-0.092-0.015c-0.635-0.104-1.209-0.333-1.73-0.737
	c-0.377-0.296-0.742-0.654-1.253-0.727c-0.313-0.048-0.638,0.01-0.935-0.122c-0.112-0.05-0.286-0.037-0.263-0.226
	c0.022-0.154,0.163-0.191,0.287-0.208c0.43-0.07,0.792-0.288,1.169-0.479c0.588-0.298,1.124-0.7,1.784-0.829
	c0.114-0.021,0.119-0.097,0.129-0.184c0.06-0.491,0.122-0.982,0.189-1.471c0.027-0.194-0.007-0.293-0.241-0.288
	c-0.474,0.012-0.9-0.145-1.29-0.407c-0.447-0.3-0.707-0.717-0.658-1.28c0.042-0.539,0.375-0.869,0.839-1.045
	c0.328-0.122,0.489-0.31,0.466-0.668c-0.002-0.072,0.028-0.146,0.04-0.221c0.179-1.097,0.415-2.187,0.44-3.306
	c0.002-0.195-0.04-0.324-0.211-0.424c-0.182-0.108-0.313-0.09-0.487,0.032c-0.93,0.648-1.923,1.181-3.017,1.437
	c-3.117,0.729-6.03,0.278-8.693-1.731c0.238-0.092,0.315-0.281,0.407-0.449c0.434-0.8,0.978-1.514,1.645-2.13
	c1.467-1.357,3.154-2.049,5.164-1.784c1.69,0.229,3.162,0.968,4.455,2.08c0.62,0.533,1.101,1.201,1.173,2.052
	c0.035,0.422,0.231,0.615,0.549,0.774c0.29,0.144,0.317,0.129,0.317-0.191c0.003-1.849,0-3.696,0.008-5.549
	c0.002-0.24-0.052-0.307-0.293-0.307c-3.908,0.007-8.139,0.007-12.05,0.002c-0.211-0.002-0.313,0.064-0.407,0.256
	c-1.266,3.464-1.479,6.013-0.812,9.181c0.841,3.993,3.005,7.098,6.422,9.267c1.169,0.739,2.425,1.277,3.76,1.623
	c0.099,0.024,0.208,0.122,0.29-0.06C20.305,37.387,20.877,37.049,21.521,36.801"/>
<path fill="#7C7C7B" d="M47.174,24.275c-0.07-0.01-0.142-0.002-0.221-0.005c-1.363-0.063-2.728-0.121-4.092-0.186v-0.092
	c0-1.011-0.077-2-0.229-2.974c0.73-0.26,1.407-0.642,2.082-1.023c0.732-0.415,1.484-0.557,2.288-0.227
	c0.095,0.037,0.241,0.154,0.306,0.01c0.044-0.106-0.097-0.2-0.187-0.271c-0.431-0.351-0.945-0.404-1.637-0.409
	c-0.541-0.032-1.172,0.216-1.792,0.511c-0.4,0.189-0.807,0.357-1.228,0.481c-0.196-0.945-0.462-1.868-0.792-2.759
	c1.32-0.606,2.638-1.211,3.958-1.822c0.154-0.071,0.422-0.121,0.33-0.342c-0.092-0.218-0.315-0.064-0.476-0.005
	c-1.358,0.501-2.715,1.003-4.073,1.504c-0.382-0.921-0.828-1.808-1.342-2.646c0.563-0.53,1.047-1.139,1.534-1.745
	c0.404-0.504,0.868-0.902,1.528-1.024c0.253-0.044,0.529,0.015,0.792-0.124c-0.08-0.134-0.191-0.188-0.33-0.231
	c-0.494-0.144-0.948,0.005-1.4,0.164c-0.806,0.281-1.365,0.892-1.923,1.494c-0.223,0.241-0.464,0.464-0.712,0.67
	c-0.598-0.883-1.268-1.712-2-2.48c1.01-1.091,2.02-2.178,3.027-3.27c0.082-0.084,0.154-0.181,0.196-0.288
	c0.042-0.105,0.02-0.218-0.179-0.198c-0.151,0.042-0.275,0.175-0.404,0.301c-1.052,0.978-2.102,1.956-3.154,2.936
	c-0.633-0.618-1.308-1.19-2.02-1.717c0.268-0.584,0.464-1.196,0.63-1.822c0.246-0.942,0.638-1.759,1.628-2.136
	c0.062-0.023,0.196-0.048,0.152-0.162c-0.03-0.079-0.132-0.099-0.224-0.094c-0.33,0.015-0.618,0.146-0.886,0.323
	c-0.732,0.479-1.213,1.155-1.491,1.975c-0.161,0.476-0.352,0.935-0.586,1.372c-0.883-0.588-1.816-1.104-2.799-1.543
	c0.484-1.301,0.966-2.602,1.447-3.899c0.062-0.159,0.114-0.319,0.176-0.504c0-0.076-0.007-0.176-0.112-0.218
	c-0.101-0.04-0.163,0.035-0.211,0.106c-0.062,0.085-0.101,0.184-0.146,0.278c-0.608,1.317-1.213,2.638-1.819,3.953
	c-0.819-0.33-1.67-0.606-2.541-0.824c0.015-0.658-0.047-1.319-0.129-1.982c-0.107-0.861-0.072-1.683,0.601-2.348
	c0.081-0.082,0.186-0.176,0.198-0.314c-0.149-0.087-0.273-0.016-0.387,0.057c-0.444,0.275-0.71,0.694-0.901,1.166
	c-0.26,0.644-0.352,1.305-0.283,2.003c0.04,0.411,0.035,0.818-0.005,1.22c-1.039-0.202-2.109-0.324-3.201-0.352
	c-0.054-1.484-0.107-2.965-0.161-4.449C23.969,0.181,23.956,0,23.783,0c-0.194,0-0.196,0.188-0.204,0.335
	c-0.049,1.476-0.101,2.95-0.151,4.424c-0.916,0.008-1.814,0.082-2.695,0.216c-0.275-0.712-0.66-1.367-1.022-2.037
	c-0.37-0.68-0.477-1.375-0.177-2.111c0.043-0.107,0.137-0.231,0.025-0.388c-0.228,0.106-0.372,0.298-0.471,0.523
	c-0.263,0.586-0.241,1.201-0.164,1.818c0.055,0.383,0.191,0.742,0.36,1.082c0.203,0.417,0.382,0.837,0.523,1.276
	c-1.062,0.211-2.092,0.516-3.084,0.898c-0.601-1.299-1.196-2.599-1.792-3.894c-0.044-0.097-0.099-0.19-0.159-0.272
	c-0.044-0.065-0.114-0.107-0.193-0.063c-0.067,0.037-0.104,0.106-0.094,0.188c0.009,0.071,0.032,0.146,0.054,0.214
	c0.504,1.356,1.01,2.714,1.524,4.094c-0.841,0.357-1.648,0.777-2.417,1.248c-0.489-0.496-1.025-0.93-1.573-1.362
	c-0.517-0.407-0.924-0.883-1.045-1.553c-0.045-0.249,0.005-0.517-0.124-0.797c-0.296,0.258-0.315,0.578-0.278,0.891
	c0.097,0.796,0.412,1.501,0.98,2.064c0.424,0.42,0.856,0.824,1.248,1.264c-0.886,0.603-1.722,1.273-2.494,2.012
	c-1.025-0.949-2.047-1.9-3.074-2.849c-0.134-0.121-0.313-0.36-0.474-0.196C6.631,7.208,6.886,7.385,7.013,7.521
	c0.945,1.025,1.886,2.042,2.831,3.061c-0.633,0.649-1.216,1.345-1.754,2.076c-0.576-0.242-1.177-0.432-1.784-0.588
	c-0.894-0.233-1.601-0.668-1.963-1.554c-0.033-0.077-0.052-0.221-0.184-0.171c-0.097,0.037-0.094,0.156-0.092,0.253
	c0.015,0.308,0.137,0.576,0.295,0.829c0.492,0.771,1.204,1.251,2.05,1.536c0.395,0.136,0.774,0.288,1.142,0.471
	c-0.591,0.895-1.107,1.837-1.544,2.824c-1.35-0.498-2.695-1-4.047-1.498c-0.127-0.045-0.313-0.134-0.38,0.067
	c-0.057,0.168,0.119,0.228,0.243,0.281c0.526,0.249,1.055,0.497,1.584,0.737c0.774,0.358,1.551,0.713,2.327,1.068
	c-0.34,0.843-0.615,1.719-0.829,2.617c-0.598,0-1.201,0.06-1.799,0.135c-0.861,0.104-1.68,0.071-2.35-0.599
	c-0.082-0.082-0.171-0.187-0.322-0.204c-0.092,0.264,0.079,0.433,0.213,0.594c0.31,0.37,0.717,0.601,1.164,0.754
	c0.598,0.214,1.213,0.288,1.854,0.226c0.355-0.034,0.702-0.034,1.052-0.012c-0.221,1.156-0.335,2.35-0.335,3.568
	c0,0.037,0,0.071,0.002,0.106c-1.268,0.057-2.531,0.114-3.794,0.171c-0.074,0.003-0.149-0.005-0.221,0.005
	C0.223,24.301-0.005,24.261,0,24.477c0.005,0.214,0.236,0.181,0.382,0.187c1.34,0.043,2.68,0.085,4.02,0.124
	c0.032,0.781,0.112,1.551,0.233,2.303c-0.667,0.275-1.285,0.64-1.92,0.979c-0.683,0.37-1.377,0.473-2.114,0.178
	c-0.107-0.045-0.229-0.14-0.383-0.03c0.067,0.186,0.214,0.31,0.38,0.402c0.28,0.153,0.586,0.232,0.908,0.268
	c0.938,0.104,1.78-0.194,2.603-0.601c0.226-0.114,0.459-0.208,0.698-0.293c0.223,1.069,0.538,2.102,0.935,3.095
	c-0.955,0.438-1.908,0.878-2.863,1.317c-0.385,0.177-0.772,0.348-1.154,0.536c-0.087,0.044-0.204,0.121-0.142,0.248
	c0.047,0.109,0.159,0.129,0.273,0.079c0.07-0.026,0.142-0.044,0.211-0.072c0.596-0.218,1.191-0.434,1.787-0.654
	c0.722-0.269,1.439-0.533,2.159-0.802c0.372,0.839,0.804,1.65,1.288,2.42c-0.484,0.48-0.919,1.015-1.338,1.553
	c-0.409,0.517-0.888,0.919-1.556,1.04c-0.253,0.045-0.526-0.022-0.794,0.137c0.305,0.285,0.645,0.305,0.998,0.25
	c0.836-0.134,1.551-0.511,2.129-1.131c0.345-0.368,0.695-0.737,1.072-1.072c0.613,0.881,1.293,1.71,2.04,2.477
	c-0.961,1.032-1.921,2.069-2.876,3.109c-0.12,0.121-0.331,0.29-0.172,0.449c0.159,0.161,0.328-0.052,0.452-0.169
	c1.04-0.958,2.074-1.918,3.112-2.881c0.655,0.623,1.352,1.201,2.089,1.729c-0.258,0.591-0.442,1.208-0.61,1.833
	c-0.236,0.892-0.67,1.6-1.561,1.958c-0.067,0.028-0.196,0.051-0.166,0.159c0.027,0.103,0.146,0.112,0.24,0.104
	c0.315-0.02,0.598-0.142,0.859-0.313c0.759-0.502,1.241-1.206,1.528-2.062c0.135-0.4,0.291-0.787,0.482-1.157
	c0.896,0.578,1.849,1.085,2.839,1.511c-0.34,0.921-0.685,1.839-1.025,2.76c-0.176,0.475-0.348,0.953-0.524,1.433
	c-0.049,0.141-0.062,0.268,0.117,0.337c0.166-0.04,0.221-0.187,0.283-0.317c0.605-1.315,1.206-2.631,1.811-3.943
	c0.834,0.32,1.693,0.586,2.579,0.79c-0.01,0.627,0.044,1.255,0.121,1.883c0.114,0.888,0.087,1.722-0.605,2.404
	c-0.05,0.05-0.09,0.116-0.129,0.179c-0.023,0.035-0.052,0.075-0.045,0.108c0.012,0.067,0.084,0.045,0.132,0.051
	c0.119-0.002,0.332-0.116,0.491-0.278c0.762-0.759,1.015-1.717,0.95-2.747c-0.034-0.476-0.034-0.948,0.008-1.412
	c1.035,0.187,2.099,0.286,3.186,0.298c0.055,1.479,0.107,2.958,0.161,4.435c0.008,0.146,0.01,0.34,0.201,0.335
	c0.186-0.002,0.189-0.193,0.194-0.343c0.035-1.005,0.069-2.008,0.117-3.319c-0.015-0.301,0.009-0.686,0.037-1.11
	c0.908-0.023,1.796-0.114,2.67-0.258c0.275,0.725,0.67,1.39,1.032,2.075c0.29,0.546,0.474,1.113,0.303,1.744
	c-0.042,0.161-0.089,0.325-0.142,0.486c-0.029,0.089-0.104,0.201-0.002,0.258c0.094,0.053,0.174-0.064,0.231-0.132
	c0.087-0.094,0.164-0.197,0.221-0.31c0.193-0.379,0.243-0.789,0.23-1.258c0.03-0.594-0.151-1.191-0.431-1.763
	c-0.204-0.419-0.385-0.841-0.524-1.279c1.057-0.229,2.08-0.544,3.06-0.941c0.615,1.333,1.228,2.665,1.843,3.998
	c0.043,0.094,0.092,0.186,0.154,0.275c0.04,0.062,0.105,0.111,0.186,0.076c0.08-0.028,0.1-0.105,0.117-0.192
	c-0.042-0.129-0.082-0.273-0.134-0.41c-0.499-1.345-0.995-2.687-1.494-4.03c0.506-0.228,1.003-0.474,1.484-0.744
	c0.524,0.494,0.866,1.164,1.057,1.726c0.581,1.737,2.065,2.255,2.065,2.255l3.246-1.866c0,0-2.048-0.531-2.611-2.471
	c-0.243-0.834-0.509-1.177-0.891-1.589c0.425-0.351,0.837-0.714,1.229-1.097c1.079,0.997,2.159,1.995,3.24,2.992
	c0.132,0.127,0.316,0.36,0.469,0.206c0.188-0.183-0.063-0.356-0.191-0.496c-0.995-1.077-1.992-2.153-2.992-3.235
	c0.6-0.63,1.161-1.304,1.675-2.016c0.65,0.306,1.342,0.515,2.042,0.7c0.896,0.238,1.593,0.677,1.953,1.568
	c0.027,0.064,0.05,0.198,0.159,0.161c0.099-0.034,0.106-0.151,0.102-0.25c-0.023-0.318-0.144-0.597-0.316-0.856
	c-0.493-0.755-1.193-1.231-2.034-1.517c-0.477-0.161-0.936-0.35-1.37-0.585c0.575-0.892,1.082-1.829,1.511-2.813
	c1.405,0.516,2.807,1.038,4.209,1.551c0.161,0.063,0.384,0.216,0.476-0.005c0.092-0.216-0.176-0.268-0.33-0.337
	c-1.36-0.631-2.72-1.256-4.075-1.881c0.316-0.809,0.576-1.646,0.782-2.509c0.707,0.026,1.415-0.04,2.122-0.122
	c0.727-0.089,1.449-0.106,2.074,0.38c0.152,0.117,0.301,0.243,0.447,0.365c0.042,0.037,0.089,0.073,0.136,0.037
	c0.028-0.022,0.028-0.079,0.035-0.117c-0.042-0.201-0.141-0.357-0.278-0.493c-0.801-0.792-1.794-1.03-2.876-0.948
	c-0.494,0.034-0.98,0.029-1.466-0.022c0.168-0.896,0.273-1.81,0.312-2.744c1.442-0.042,2.879-0.085,4.321-0.132
	c0.146-0.006,0.377,0.027,0.384-0.187C47.553,24.261,47.325,24.301,47.174,24.275 M23.624,41.07c-9.13,0-16.609-7.2-17.058-16.224
	c0.008-0.261-0.02-0.836-0.02-0.854c0-6.913,4.129-12.885,10.055-15.569c0.194-1.231,0.559-2.064,0.971-2.064
	c0.33,0,0.625,0.531,0.831,1.372c0.506-0.161,1.02-0.3,1.546-0.419c0.191-0.594,0.439-0.953,0.715-0.953
	c0.23,0,0.446,0.269,0.63,0.718c0.759-0.104,1.538-0.161,2.33-0.161c9.415,0,17.075,7.662,17.075,17.077
	C40.699,33.411,33.039,41.07,23.624,41.07"/>
<path fill="#7C7C7B" d="M22.909,14.234V9.745c0,0-0.015-0.308-0.464-0.271c-0.094,0.01-0.424,0.022-0.923,0.087
	c0.02,0.288,0.03,0.586,0.03,0.891c0,2.067-0.412,3.775-0.946,4.051c1.169,0.005,1.943,0.008,1.943,0.008
	S22.909,14.52,22.909,14.234"/>
<path fill="#7C7C7B" d="M19.364,10.453c0-0.146,0-0.288,0.005-0.427c-0.276,0.076-0.558,0.171-0.854,0.277v0.149
	c0,2.047-0.402,3.745-0.928,4.045c0.985,0,1.926,0.002,2.715,0.005C19.771,14.225,19.364,12.518,19.364,10.453"/>
<path fill="#7C7C7B" d="M17.254,14.495c-0.449-0.258-0.812-1.543-0.906-3.201c-1.31,0.732-2.677,1.757-3.958,3.204
	C13.766,14.493,15.563,14.493,17.254,14.495"/>
<polygon fill="#7C7C7B" points="12.903,15.662 14.538,17.488 16.375,15.649 18.31,17.474 20.022,15.702 21.742,17.511 22.804,15.99 
	22.817,14.97 21.675,16.6 20.025,14.868 18.293,16.662 16.362,14.843 14.561,16.649 12.933,14.828 11.258,16.451 11.042,17.344 
	11.099,17.409 "/>
<polygon fill="#7C7C7B" points="53.091,29.413 54.83,29.413 58.17,37.136 58.198,37.136 61.566,29.413 63.263,29.413 63.263,39.265 
	62.094,39.265 62.094,30.999 62.066,30.999 58.532,39.265 57.822,39.265 54.288,30.999 54.26,30.999 54.26,39.265 53.091,39.265 "/>
<path fill="#7C7C7B" d="M75.885,35.508c0,0.538-0.067,1.049-0.202,1.53c-0.134,0.482-0.347,0.907-0.64,1.273
	c-0.292,0.366-0.675,0.659-1.148,0.876c-0.473,0.22-1.048,0.327-1.725,0.327c-0.678,0-1.253-0.107-1.726-0.327
	c-0.473-0.217-0.856-0.51-1.148-0.876s-0.506-0.791-0.64-1.273c-0.134-0.481-0.202-0.992-0.202-1.53v-6.095h1.169v5.928
	c0,0.399,0.042,0.784,0.125,1.155c0.084,0.371,0.223,0.7,0.418,0.988c0.195,0.286,0.454,0.517,0.779,0.688
	c0.325,0.172,0.733,0.257,1.225,0.257c0.491,0,0.899-0.085,1.224-0.257s0.585-0.402,0.779-0.688
	c0.195-0.288,0.335-0.617,0.418-0.988s0.125-0.756,0.125-1.155v-5.928h1.169V35.508z"/>
<polygon fill="#7C7C7B" points="81.075,29.413 82.551,29.413 88.256,37.596 88.283,37.596 88.283,29.413 89.452,29.413 
	89.452,39.265 87.978,39.265 82.272,31.082 82.244,31.082 82.244,39.265 81.075,39.265 "/>
<rect x="94.686" y="29.412" fill="#7C7C7B" width="1.168" height="9.853"/>
<path fill="#7C7C7B" d="M107.988,31.444c-0.297-0.399-0.663-0.698-1.1-0.897s-0.891-0.3-1.363-0.3c-0.547,0-1.051,0.112-1.51,0.335
	s-0.856,0.521-1.19,0.897c-0.334,0.375-0.594,0.812-0.778,1.308c-0.187,0.497-0.279,1.015-0.279,1.552
	c0,0.575,0.093,1.111,0.279,1.606c0.185,0.497,0.442,0.929,0.771,1.295c0.33,0.367,0.724,0.657,1.183,0.87
	c0.46,0.213,0.968,0.32,1.524,0.32c0.604,0,1.141-0.119,1.613-0.355c0.474-0.236,0.887-0.578,1.24-1.022l0.875,0.737
	c-0.445,0.593-0.98,1.03-1.606,1.309c-0.626,0.277-1.334,0.417-2.122,0.417c-0.705,0-1.364-0.13-1.977-0.391
	c-0.611-0.259-1.144-0.618-1.594-1.078c-0.449-0.459-0.802-1.004-1.057-1.635c-0.256-0.631-0.383-1.322-0.383-2.073
	c0-0.725,0.123-1.4,0.369-2.031s0.59-1.179,1.037-1.643c0.444-0.464,0.974-0.831,1.586-1.1c0.611-0.269,1.284-0.403,2.018-0.403
	c0.668,0,1.311,0.12,1.927,0.362c0.617,0.241,1.134,0.635,1.552,1.183L107.988,31.444z"/>
<rect x="113.666" y="29.412" fill="#7C7C7B" width="1.169" height="9.853"/>
<path fill="#7C7C7B" d="M120.066,29.413h2.924c0.453,0,0.888,0.044,1.301,0.132c0.412,0.088,0.779,0.236,1.099,0.445
	c0.32,0.209,0.575,0.486,0.765,0.836c0.19,0.347,0.287,0.775,0.287,1.285c0,0.539-0.103,0.984-0.308,1.337
	c-0.204,0.353-0.466,0.632-0.786,0.836c-0.32,0.203-0.67,0.348-1.05,0.431c-0.381,0.083-0.743,0.125-1.086,0.125h-1.976v4.425h-1.17
	V29.413z M121.236,33.755h1.976c0.585,0,1.06-0.133,1.426-0.397c0.367-0.265,0.55-0.675,0.55-1.23c0-0.558-0.183-0.968-0.55-1.232
	c-0.366-0.265-0.841-0.396-1.426-0.396h-1.976V33.755z"/>
<rect x="131.102" y="29.412" fill="#7C7C7B" width="1.17" height="9.853"/>
<path fill="#7C7C7B" d="M142.082,39.515c-0.752,0-1.44-0.13-2.067-0.389c-0.626-0.26-1.169-0.619-1.628-1.079
	c-0.459-0.459-0.816-1.006-1.071-1.642c-0.255-0.635-0.383-1.324-0.383-2.066s0.128-1.431,0.383-2.065
	c0.255-0.637,0.612-1.185,1.071-1.644s1.002-0.818,1.628-1.078c0.627-0.26,1.315-0.39,2.067-0.39c0.75,0,1.439,0.13,2.066,0.39
	c0.626,0.26,1.168,0.619,1.627,1.078c0.46,0.459,0.816,1.007,1.072,1.644c0.255,0.635,0.383,1.323,0.383,2.065
	s-0.128,1.432-0.383,2.066c-0.256,0.636-0.612,1.183-1.072,1.642c-0.459,0.46-1.001,0.819-1.627,1.079
	C143.521,39.385,142.832,39.515,142.082,39.515 M142.082,38.43c0.574,0,1.101-0.106,1.578-0.319
	c0.479-0.213,0.889-0.506,1.232-0.877c0.343-0.371,0.609-0.806,0.8-1.302c0.19-0.495,0.285-1.026,0.285-1.593
	c0-0.565-0.095-1.097-0.285-1.594c-0.19-0.496-0.457-0.93-0.8-1.301c-0.344-0.371-0.754-0.663-1.232-0.876
	c-0.478-0.214-1.004-0.321-1.578-0.321c-0.576,0-1.103,0.107-1.58,0.321c-0.478,0.213-0.889,0.505-1.231,0.876
	s-0.61,0.805-0.8,1.301c-0.19,0.497-0.285,1.028-0.285,1.594c0,0.566,0.095,1.098,0.285,1.593c0.189,0.496,0.457,0.931,0.8,1.302
	s0.754,0.664,1.231,0.877S141.506,38.43,142.082,38.43"/>
<path fill="#7C7C7B" d="M68.463,24.26h-9.22c-1.189,0-2.288-0.176-3.298-0.527c-1.01-0.351-1.88-0.861-2.611-1.537
	c-0.731-0.673-1.304-1.488-1.719-2.448c-0.416-0.96-0.623-2.057-0.623-3.288c0-1.146,0.211-2.199,0.634-3.159
	c0.422-0.96,0.999-1.784,1.729-2.471c0.731-0.688,1.591-1.222,2.579-1.602c0.989-0.38,2.049-0.57,3.18-0.57
	c1.132,0,2.192,0.194,3.181,0.581c0.988,0.388,1.848,0.924,2.579,1.611c0.731,0.688,1.307,1.508,1.73,2.461
	c0.422,0.953,0.634,2.002,0.634,3.148c0,0.545-0.061,1.074-0.183,1.59c-0.122,0.516-0.305,1.003-0.548,1.462
	c-0.244,0.458-0.559,0.87-0.946,1.235c-0.386,0.364-0.838,0.662-1.353,0.892v0.043h4.255V24.26z M54.473,16.459
	c0,0.659,0.121,1.274,0.365,1.848s0.577,1.072,0.999,1.493c0.423,0.423,0.914,0.757,1.473,1c0.558,0.243,1.16,0.366,1.804,0.366
	s1.247-0.123,1.806-0.366c0.558-0.243,1.049-0.577,1.472-1c0.422-0.421,0.755-0.92,0.999-1.493c0.243-0.573,0.365-1.188,0.365-1.848
	s-0.122-1.275-0.365-1.849c-0.244-0.572-0.577-1.07-0.999-1.492c-0.423-0.424-0.914-0.758-1.472-1
	c-0.559-0.243-1.161-0.366-1.806-0.366s-1.246,0.123-1.804,0.366c-0.559,0.242-1.05,0.576-1.473,1
	c-0.422,0.422-0.755,0.92-0.999,1.492C54.594,15.184,54.473,15.8,54.473,16.459"/>
<path fill="#7C7C7B" d="M82.946,18.393c0,0.902-0.136,1.734-0.408,2.492c-0.272,0.76-0.677,1.419-1.214,1.977
	c-0.538,0.561-1.207,0.996-2.01,1.312s-1.727,0.474-2.772,0.474c-1.06,0-1.991-0.158-2.793-0.474
	c-0.803-0.315-1.473-0.751-2.01-1.312c-0.537-0.558-0.942-1.217-1.214-1.977c-0.272-0.758-0.408-1.59-0.408-2.492V9.045h3.352v9.219
	c0,0.472,0.075,0.91,0.226,1.312c0.15,0.4,0.361,0.749,0.634,1.042c0.272,0.294,0.598,0.522,0.978,0.687
	c0.379,0.165,0.791,0.248,1.235,0.248s0.853-0.083,1.226-0.248c0.373-0.164,0.694-0.393,0.967-0.687
	c0.271-0.293,0.484-0.642,0.634-1.042c0.149-0.401,0.226-0.84,0.226-1.312V9.045h3.353V18.393z"/>
<rect x="85.998" y="9.044" fill="#7C7C7B" width="3.352" height="15.216"/>
<polygon fill="#7C7C7B" points="92.53,9.045 95.882,9.045 95.882,21.165 102.093,21.165 102.093,24.26 92.53,24.26 "/>
<polygon fill="#7C7C7B" points="103.94,9.045 109.013,9.045 112.515,18.974 112.558,18.974 116.082,9.045 121.133,9.045 
	121.133,24.26 117.779,24.26 117.779,12.591 117.736,12.591 113.74,24.26 111.183,24.26 107.336,12.591 107.293,12.591 
	107.293,24.26 103.94,24.26 "/>
<polygon fill="#7C7C7B" points="124.355,9.045 134.692,9.045 134.692,12.139 127.707,12.139 127.707,14.976 134.306,14.976 
	134.306,18.069 127.707,18.069 127.707,21.165 135.08,21.165 135.08,24.26 124.355,24.26 "/>
<path fill="#7C7C7B" d="M145.286,12.763c-0.272-0.345-0.642-0.599-1.107-0.763c-0.465-0.165-0.905-0.248-1.321-0.248
	c-0.244,0-0.494,0.029-0.752,0.087c-0.258,0.057-0.502,0.146-0.73,0.269s-0.416,0.282-0.559,0.483
	c-0.144,0.2-0.216,0.443-0.216,0.73c0,0.458,0.173,0.81,0.517,1.052c0.344,0.245,0.777,0.452,1.3,0.624s1.086,0.345,1.687,0.517
	c0.603,0.171,1.164,0.416,1.688,0.729c0.523,0.316,0.957,0.739,1.3,1.269c0.345,0.529,0.517,1.239,0.517,2.128
	c0,0.845-0.158,1.583-0.474,2.213c-0.315,0.631-0.741,1.153-1.278,1.569c-0.537,0.414-1.16,0.723-1.869,0.924
	c-0.709,0.199-1.459,0.301-2.246,0.301c-0.988,0-1.905-0.151-2.752-0.452c-0.844-0.3-1.633-0.787-2.362-1.461l2.385-2.621
	c0.345,0.458,0.777,0.813,1.3,1.064c0.523,0.25,1.064,0.375,1.623,0.375c0.271,0,0.547-0.032,0.827-0.097s0.53-0.162,0.752-0.29
	c0.222-0.13,0.401-0.294,0.538-0.495c0.137-0.2,0.204-0.437,0.204-0.709c0-0.457-0.176-0.819-0.526-1.085
	c-0.352-0.265-0.793-0.49-1.322-0.677c-0.53-0.186-1.104-0.373-1.719-0.559c-0.617-0.187-1.189-0.437-1.72-0.752
	s-0.971-0.73-1.321-1.247c-0.352-0.516-0.526-1.195-0.526-2.041c0-0.817,0.161-1.533,0.483-2.149s0.752-1.131,1.289-1.547
	s1.157-0.727,1.859-0.935c0.702-0.207,1.425-0.313,2.17-0.313c0.859,0,1.689,0.122,2.493,0.366c0.802,0.243,1.526,0.652,2.17,1.224
	L145.286,12.763z"/>
</svg>
