<?xml version="1.0" encoding="utf-8"?>
<!-- Generator: Adobe Illustrator 16.0.0, SVG Export Plug-In . SVG Version: 6.00 Build 0)  -->
<!DOCTYPE svg PUBLIC "-//W3C//DTD SVG 1.1//EN" "http://www.w3.org/Graphics/SVG/1.1/DTD/svg11.dtd">
<svg version="1.1" id="Capa_1" xmlns="http://www.w3.org/2000/svg" xmlns:xlink="http://www.w3.org/1999/xlink" x="0px" y="0px"
	 width="129.909px" height="40px" viewBox="0 0 129.909 40" enable-background="new 0 0 129.909 40" xml:space="preserve">
<path fill="#FFFFFF" d="M59.649,16.294h-8.028c-1.015,0-1.957-0.183-2.822-0.548c-0.867-0.364-1.615-0.861-2.246-1.494
	c-0.633-0.632-1.131-1.38-1.495-2.246c-0.364-0.865-0.547-1.799-0.547-2.803c0-1.002,0.183-1.936,0.547-2.803
	c0.364-0.866,0.862-1.614,1.495-2.246c0.631-0.631,1.379-1.13,2.246-1.494c0.865-0.365,1.807-0.548,2.822-0.548
	c1.016,0,1.956,0.183,2.823,0.548c0.865,0.364,1.614,0.863,2.246,1.494c0.631,0.632,1.129,1.38,1.494,2.246
	c0.365,0.867,0.547,1.801,0.547,2.803c0,0.587-0.078,1.17-0.234,1.748c-0.157,0.58-0.381,1.121-0.674,1.621
	c-0.293,0.503-0.644,0.951-1.055,1.348c-0.41,0.398-0.876,0.707-1.396,0.928v0.039h4.277V16.294z M46.27,9.204
	c0,0.781,0.137,1.512,0.41,2.188c0.274,0.677,0.648,1.267,1.123,1.768c0.476,0.501,1.039,0.896,1.69,1.181
	c0.651,0.287,1.361,0.43,2.129,0.43c0.755,0,1.462-0.143,2.119-0.43c0.658-0.285,1.225-0.68,1.7-1.181
	c0.475-0.501,0.849-1.091,1.123-1.768c0.274-0.676,0.41-1.407,0.41-2.188c0-0.768-0.133-1.49-0.4-2.168
	c-0.267-0.677-0.638-1.267-1.114-1.768c-0.475-0.501-1.038-0.898-1.689-1.19c-0.652-0.294-1.367-0.441-2.149-0.441
	c-0.781,0-1.498,0.147-2.149,0.441c-0.651,0.292-1.214,0.689-1.689,1.19s-0.846,1.091-1.113,1.768
	C46.404,7.713,46.27,8.436,46.27,9.204"/>
<path fill="#FFFFFF" d="M72.346,11.02c0,0.755-0.094,1.472-0.283,2.148c-0.188,0.678-0.488,1.274-0.898,1.788
	c-0.41,0.514-0.947,0.925-1.611,1.23c-0.664,0.306-1.471,0.459-2.422,0.459s-1.758-0.153-2.421-0.459
	c-0.665-0.305-1.202-0.716-1.612-1.23c-0.41-0.514-0.709-1.11-0.898-1.788c-0.189-0.676-0.284-1.394-0.284-2.148V2.465h1.641v8.321
	c0,0.56,0.059,1.1,0.176,1.62c0.117,0.521,0.312,0.984,0.586,1.387c0.274,0.404,0.638,0.726,1.094,0.967
	c0.455,0.242,1.028,0.362,1.719,0.362s1.264-0.12,1.719-0.362c0.455-0.241,0.82-0.563,1.094-0.967
	c0.273-0.403,0.469-0.866,0.586-1.387c0.117-0.52,0.176-1.06,0.176-1.62V2.465h1.641V11.02z"/>
<rect x="76.096" y="2.465" fill="#FFFFFF" width="1.642" height="13.829"/>
<polygon fill="#FFFFFF" points="81.546,2.465 83.187,2.465 83.187,14.771 89.515,14.771 89.515,16.294 81.546,16.294 "/>
<polygon fill="#FFFFFF" points="91.684,2.465 94.125,2.465 98.813,13.305 98.852,13.305 103.578,2.465 105.962,2.465 
	105.962,16.294 104.32,16.294 104.32,4.691 104.281,4.691 99.32,16.294 98.324,16.294 93.363,4.691 93.324,4.691 93.324,16.294 
	91.684,16.294 "/>
<polygon fill="#FFFFFF" points="109.77,2.465 118.462,2.465 118.462,3.988 111.411,3.988 111.411,8.324 117.993,8.324 
	117.993,9.848 111.411,9.848 111.411,14.771 118.813,14.771 118.813,16.294 109.77,16.294 "/>
<path fill="#FFFFFF" d="M128.287,4.907c-0.273-0.443-0.639-0.766-1.094-0.967c-0.457-0.203-0.932-0.304-1.426-0.304
	c-0.365,0-0.723,0.046-1.074,0.137c-0.352,0.092-0.668,0.229-0.947,0.41c-0.28,0.183-0.505,0.424-0.674,0.724
	c-0.17,0.299-0.254,0.651-0.254,1.054c0,0.313,0.048,0.589,0.146,0.83c0.099,0.242,0.259,0.459,0.479,0.655
	c0.221,0.195,0.521,0.377,0.898,0.547c0.377,0.169,0.84,0.338,1.387,0.508c0.533,0.168,1.051,0.351,1.553,0.546
	c0.501,0.196,0.943,0.443,1.328,0.743c0.384,0.299,0.689,0.674,0.918,1.122c0.228,0.45,0.342,1.013,0.342,1.691
	c0,0.69-0.137,1.289-0.41,1.797c-0.273,0.507-0.635,0.927-1.084,1.259s-0.967,0.58-1.553,0.743
	c-0.586,0.162-1.192,0.243-1.817,0.243c-0.403,0-0.807-0.035-1.21-0.106c-0.404-0.073-0.792-0.183-1.163-0.333
	c-0.37-0.149-0.719-0.345-1.045-0.586c-0.325-0.24-0.604-0.538-0.84-0.889l1.407-1.152c0.299,0.508,0.716,0.892,1.25,1.152
	c0.533,0.261,1.1,0.391,1.699,0.391c0.352,0,0.705-0.051,1.064-0.157c0.357-0.104,0.68-0.256,0.967-0.459
	c0.286-0.201,0.521-0.451,0.703-0.751c0.182-0.3,0.273-0.645,0.273-1.035c0-0.43-0.071-0.779-0.215-1.046
	c-0.144-0.266-0.364-0.497-0.664-0.693c-0.299-0.195-0.678-0.371-1.133-0.528c-0.457-0.155-0.99-0.338-1.602-0.546
	c-0.496-0.156-0.951-0.335-1.368-0.538c-0.416-0.201-0.778-0.448-1.084-0.742c-0.306-0.293-0.546-0.644-0.723-1.055
	c-0.175-0.409-0.263-0.901-0.263-1.474c0-0.664,0.129-1.244,0.391-1.738c0.26-0.495,0.611-0.909,1.054-1.241
	c0.443-0.331,0.944-0.583,1.505-0.752c0.559-0.169,1.146-0.254,1.758-0.254c0.781,0,1.494,0.121,2.139,0.362
	c0.645,0.24,1.221,0.661,1.729,1.26L128.287,4.907z"/>
<path fill="#FFFFFF" d="M45.346,21.088h4.96c0.691,0,1.345,0.063,1.961,0.188c0.616,0.126,1.153,0.343,1.613,0.651
	c0.459,0.308,0.823,0.724,1.093,1.245c0.271,0.522,0.406,1.177,0.406,1.97c0,0.779-0.125,1.434-0.377,1.962
	c-0.252,0.528-0.598,0.95-1.038,1.264s-0.961,0.537-1.564,0.67c-0.604,0.132-1.258,0.197-1.962,0.197h-2.15v5.205h-2.942V21.088z
	 M48.288,26.746h1.961c0.265,0,0.519-0.025,0.764-0.074c0.245-0.052,0.465-0.137,0.66-0.256c0.195-0.119,0.352-0.283,0.472-0.49
	c0.119-0.207,0.179-0.469,0.179-0.783c0-0.34-0.079-0.613-0.235-0.819c-0.158-0.208-0.359-0.369-0.604-0.481
	c-0.246-0.113-0.519-0.186-0.821-0.218c-0.301-0.03-0.591-0.047-0.867-0.047h-1.509V26.746z"/>
<path fill="#FFFFFF" d="M56.775,27.764c0-1.068,0.179-2.036,0.537-2.905c0.359-0.867,0.858-1.605,1.499-2.215
	c0.641-0.61,1.402-1.079,2.283-1.405c0.879-0.327,1.841-0.491,2.885-0.491c1.043,0,2.005,0.164,2.884,0.491
	c0.881,0.326,1.642,0.795,2.283,1.405c0.642,0.61,1.141,1.348,1.498,2.215c0.359,0.869,0.539,1.837,0.539,2.905
	c0,1.069-0.18,2.036-0.539,2.905c-0.357,0.867-0.856,1.605-1.498,2.215s-1.402,1.078-2.283,1.404
	c-0.879,0.327-1.841,0.491-2.884,0.491c-1.044,0-2.006-0.164-2.885-0.491c-0.881-0.326-1.642-0.795-2.283-1.404
	s-1.14-1.348-1.499-2.215C56.954,29.8,56.775,28.833,56.775,27.764 M59.83,27.764c0,0.629,0.097,1.204,0.292,1.726
	c0.195,0.522,0.474,0.975,0.839,1.358s0.802,0.682,1.311,0.895c0.509,0.216,1.078,0.321,1.707,0.321
	c0.628,0,1.197-0.105,1.707-0.321c0.51-0.213,0.945-0.511,1.311-0.895s0.645-0.836,0.84-1.358c0.193-0.521,0.292-1.097,0.292-1.726
	c0-0.616-0.099-1.188-0.292-1.718c-0.195-0.526-0.475-0.981-0.84-1.366c-0.365-0.382-0.801-0.681-1.311-0.896
	c-0.51-0.214-1.079-0.321-1.707-0.321c-0.629,0-1.198,0.107-1.707,0.321c-0.509,0.215-0.946,0.514-1.311,0.896
	c-0.365,0.385-0.644,0.84-0.839,1.366C59.927,26.576,59.83,27.148,59.83,27.764"/>
<path fill="#FFFFFF" d="M73.446,21.088h5.168c0.679,0,1.323,0.065,1.933,0.198c0.609,0.132,1.145,0.351,1.604,0.659
	c0.458,0.309,0.822,0.724,1.093,1.246c0.271,0.521,0.406,1.171,0.406,1.951c0,0.943-0.245,1.744-0.735,2.405
	c-0.49,0.659-1.207,1.078-2.15,1.255l3.395,5.639h-3.527l-2.791-5.338h-1.451v5.338h-2.942V21.088z M76.389,26.615h1.734
	c0.264,0,0.545-0.012,0.84-0.029s0.563-0.075,0.801-0.17c0.238-0.094,0.437-0.242,0.595-0.443c0.157-0.201,0.235-0.484,0.235-0.848
	c0-0.34-0.068-0.61-0.207-0.812c-0.139-0.2-0.314-0.354-0.528-0.463c-0.213-0.106-0.459-0.179-0.735-0.217
	c-0.277-0.037-0.547-0.058-0.811-0.058h-1.924V26.615z"/>
<polygon fill="#FFFFFF" points="90.456,21.088 93.813,21.088 97.114,29.839 97.151,29.839 100.508,21.088 103.658,21.088 
	98.151,34.44 95.795,34.44 "/>
<path fill="#FFFFFF" d="M104.602,27.764c0-1.068,0.18-2.036,0.537-2.905c0.359-0.867,0.857-1.605,1.499-2.215
	c0.642-0.61,1.401-1.079,2.283-1.405c0.879-0.327,1.841-0.491,2.885-0.491c1.043,0,2.005,0.164,2.885,0.491
	c0.88,0.326,1.642,0.795,2.282,1.405c0.643,0.61,1.141,1.348,1.499,2.215c0.358,0.869,0.538,1.837,0.538,2.905
	c0,1.069-0.18,2.036-0.538,2.905c-0.358,0.867-0.856,1.605-1.499,2.215c-0.641,0.609-1.402,1.078-2.282,1.404
	c-0.88,0.327-1.842,0.491-2.885,0.491c-1.044,0-2.006-0.164-2.885-0.491c-0.882-0.326-1.642-0.795-2.283-1.404
	s-1.14-1.348-1.499-2.215C104.781,29.8,104.602,28.833,104.602,27.764 M107.656,27.764c0,0.629,0.098,1.204,0.293,1.726
	c0.194,0.522,0.474,0.975,0.838,1.358c0.365,0.384,0.803,0.682,1.312,0.895c0.509,0.216,1.078,0.321,1.707,0.321
	c0.628,0,1.196-0.105,1.706-0.321c0.51-0.213,0.945-0.511,1.311-0.895s0.645-0.836,0.84-1.358c0.194-0.521,0.293-1.097,0.293-1.726
	c0-0.616-0.099-1.188-0.293-1.718c-0.195-0.526-0.475-0.981-0.84-1.366c-0.365-0.382-0.801-0.681-1.311-0.896
	c-0.51-0.214-1.078-0.321-1.706-0.321c-0.629,0-1.198,0.107-1.707,0.321c-0.509,0.215-0.946,0.514-1.312,0.896
	c-0.364,0.385-0.644,0.84-0.838,1.366C107.754,26.576,107.656,27.148,107.656,27.764"/>
<path fill="#FFFFFF" d="M127.873,24.35c-0.238-0.301-0.563-0.524-0.971-0.67c-0.409-0.144-0.796-0.217-1.16-0.217
	c-0.215,0-0.434,0.027-0.661,0.077c-0.226,0.05-0.44,0.129-0.641,0.234c-0.201,0.107-0.364,0.249-0.49,0.426
	c-0.125,0.176-0.188,0.389-0.188,0.641c0,0.402,0.15,0.71,0.453,0.923c0.301,0.215,0.682,0.396,1.141,0.547
	c0.459,0.152,0.953,0.304,1.48,0.453c0.527,0.151,1.021,0.366,1.48,0.642c0.459,0.276,0.839,0.647,1.141,1.112
	c0.303,0.465,0.452,1.087,0.452,1.868c0,0.742-0.138,1.389-0.415,1.941c-0.275,0.554-0.65,1.013-1.122,1.377
	c-0.471,0.365-1.018,0.636-1.64,0.811c-0.622,0.176-1.28,0.264-1.971,0.264c-0.867,0-1.672-0.131-2.414-0.396
	s-1.434-0.692-2.074-1.282l2.093-2.301c0.302,0.402,0.683,0.714,1.142,0.934c0.459,0.221,0.933,0.33,1.424,0.33
	c0.238,0,0.48-0.029,0.726-0.085c0.245-0.057,0.465-0.141,0.66-0.254c0.194-0.112,0.353-0.258,0.471-0.435
	c0.119-0.176,0.179-0.383,0.179-0.623c0-0.401-0.153-0.719-0.461-0.951c-0.309-0.233-0.695-0.43-1.16-0.596
	c-0.465-0.162-0.969-0.326-1.508-0.488c-0.541-0.164-1.045-0.385-1.51-0.66c-0.465-0.277-0.852-0.643-1.158-1.096
	c-0.31-0.451-0.464-1.049-0.464-1.791c0-0.715,0.142-1.344,0.425-1.885c0.282-0.54,0.66-0.993,1.131-1.357
	c0.472-0.366,1.016-0.638,1.633-0.821c0.615-0.182,1.251-0.274,1.904-0.274c0.754,0,1.483,0.107,2.188,0.321
	c0.704,0.213,1.339,0.572,1.904,1.075L127.873,24.35z"/>
<path fill="#BED600" d="M5.941,35.675c0,0,10.061,9.731,23.657,0H5.941z"/>
<path fill="#BED600" d="M29.985,5.098c-0.239-0.238-0.528-0.414-0.779-0.636c-1.407-1.245-2.978-2.313-4.757-3.066
	C22.248,0.478,19.882,0,17.453,0c-2.434,0-4.799,0.478-6.995,1.396c-2.095,0.887-3.96,2.128-5.537,3.702
	C1.727,8.267,0,12.421,0,16.812c0,4.384,1.727,8.542,4.921,11.714c0.237,0.231,0.525,0.412,0.776,0.636
	c1.41,1.246,2.981,2.309,4.761,3.065c2.201,0.919,4.565,1.396,6.995,1.396c2.433,0,4.798-0.477,6.996-1.396
	c2.094-0.889,3.956-2.131,5.536-3.701c3.193-3.172,4.918-7.33,4.918-11.714C34.903,12.421,33.178,8.267,29.985,5.098 M17.453,29.576
	c-6.548,0-12.352-5.512-12.352-12.764S10.905,4.04,17.453,4.04c6.548,0,12.353,5.52,12.353,12.772S24.001,29.576,17.453,29.576"/>
</svg>
