<svg version="1.1" id="Layer_1" xmlns="http://www.w3.org/2000/svg" xmlns:xlink="http://www.w3.org/1999/xlink" x="0" y="0" width="145" height="40" viewBox="0 0 145 40" enable-background="new 0 0 145 40" xml:space="preserve">
  <path fill="#BED600" d="M6.05 35.67c0 0 10.06 9.73 23.66 0H6.05z"/>
  <path fill="#BED600" d="M30.09 5.1c-0.24-0.24-0.53-0.41-0.78-0.64 -1.41-1.25-2.98-2.31-4.76-3.07C22.35 0.48 19.99 0 17.56 0c-2.43 0-4.8 0.48-6.99 1.4 -2.1 0.89-3.96 2.13-5.54 3.7 -3.19 3.17-4.92 7.32-4.92 11.71 0 4.38 1.73 8.54 4.92 11.71 0.24 0.23 0.53 0.41 0.78 0.64 1.41 1.25 2.98 2.31 4.76 3.07 2.2 0.92 4.56 1.4 7 1.4 2.43 0 4.8-0.48 7-1.4 2.09-0.89 3.96-2.13 5.54-3.7 3.19-3.17 4.92-7.33 4.92-11.71C35.01 12.42 33.28 8.27 30.09 5.1zM17.56 29.58c-6.55 0-12.35-5.51-12.35-12.76C5.21 9.56 11.01 4.04 17.56 4.04c6.55 0 12.35 5.52 12.35 12.77C29.91 24.06 24.11 29.58 17.56 29.58z"/>
  <path fill="#363534" d="M45.56 23.89h1.83l3.51 8.12h0.03l3.54-8.12h1.78v10.35h-1.23v-8.69h-0.03l-3.71 8.69H50.53l-3.71-8.69h-0.03v8.69h-1.23V23.89z"/>
  <path fill="#363534" d="M69.51 30.3c0 0.56-0.07 1.1-0.21 1.61 -0.14 0.51-0.37 0.95-0.67 1.34 -0.31 0.39-0.71 0.69-1.21 0.92 -0.5 0.23-1.1 0.34-1.81 0.34 -0.71 0-1.32-0.11-1.81-0.34 -0.5-0.23-0.9-0.54-1.21-0.92 -0.31-0.38-0.53-0.83-0.67-1.34 -0.14-0.51-0.21-1.04-0.21-1.61v-6.41h1.23v6.23c0 0.42 0.04 0.82 0.13 1.21 0.09 0.39 0.23 0.74 0.44 1.04 0.21 0.3 0.48 0.54 0.82 0.72 0.34 0.18 0.77 0.27 1.29 0.27 0.52 0 0.95-0.09 1.29-0.27 0.34-0.18 0.61-0.42 0.82-0.72 0.21-0.3 0.35-0.65 0.44-1.04s0.13-0.79 0.13-1.21v-6.23h1.23V30.3z"/>
  <path fill="#363534" d="M74.97 23.89h1.55l6 8.6h0.03v-8.6h1.23v10.35h-1.55l-6-8.6h-0.03v8.6H74.97V23.89z"/>
  <path fill="#363534" d="M89.27 23.89h1.23v10.35h-1.23V23.89z"/>
  <path fill="#363534" d="M103.26 26.03c-0.31-0.42-0.7-0.73-1.16-0.94 -0.46-0.21-0.94-0.31-1.43-0.31 -0.57 0-1.1 0.12-1.59 0.35 -0.48 0.23-0.9 0.55-1.25 0.94 -0.35 0.4-0.62 0.85-0.82 1.38 -0.19 0.52-0.29 1.07-0.29 1.63 0 0.61 0.1 1.17 0.29 1.69 0.2 0.52 0.47 0.98 0.81 1.36s0.76 0.69 1.24 0.91c0.48 0.22 1.02 0.34 1.6 0.34 0.63 0 1.2-0.12 1.7-0.37 0.5-0.25 0.93-0.61 1.3-1.07l0.92 0.78c-0.47 0.62-1.03 1.08-1.69 1.38 -0.66 0.29-1.4 0.44-2.23 0.44 -0.74 0-1.43-0.14-2.08-0.41 -0.64-0.27-1.2-0.65-1.67-1.13 -0.47-0.48-0.84-1.05-1.11-1.72 -0.27-0.66-0.4-1.39-0.4-2.18 0-0.76 0.13-1.47 0.39-2.13 0.26-0.66 0.62-1.24 1.09-1.73 0.47-0.49 1.02-0.87 1.67-1.16 0.64-0.28 1.35-0.42 2.12-0.42 0.7 0 1.38 0.13 2.03 0.38 0.65 0.25 1.19 0.67 1.63 1.24L103.26 26.03z"/>
  <path fill="#363534" d="M109.22 23.89h1.23v10.35h-1.23V23.89z"/>
  <path fill="#363534" d="M115.95 23.89h3.07c0.48 0 0.93 0.05 1.37 0.14s0.82 0.25 1.16 0.47c0.34 0.22 0.6 0.51 0.8 0.88 0.2 0.37 0.3 0.82 0.3 1.35 0 0.57-0.11 1.03-0.32 1.4 -0.21 0.37-0.49 0.66-0.83 0.88 -0.34 0.22-0.7 0.37-1.1 0.45 -0.4 0.09-0.78 0.13-1.14 0.13h-2.08v4.65h-1.23V23.89zM117.18 28.46h2.08c0.61 0 1.11-0.14 1.5-0.42 0.39-0.28 0.58-0.71 0.58-1.29 0-0.58-0.19-1.02-0.58-1.29 -0.38-0.28-0.88-0.42-1.5-0.42h-2.08V28.46z"/>
  <path fill="#363534" d="M127.55 23.89h1.23v10.35h-1.23V23.89z"/>
  <path fill="#363534" d="M139.09 34.51c-0.79 0-1.51-0.14-2.17-0.41 -0.66-0.27-1.23-0.65-1.71-1.13 -0.48-0.48-0.86-1.06-1.13-1.73 -0.27-0.67-0.4-1.39-0.4-2.17s0.13-1.5 0.4-2.17c0.27-0.67 0.64-1.24 1.13-1.73 0.48-0.48 1.05-0.86 1.71-1.13 0.66-0.27 1.38-0.41 2.17-0.41 0.79 0 1.51 0.14 2.17 0.41 0.66 0.27 1.23 0.65 1.71 1.13 0.48 0.48 0.86 1.06 1.13 1.73 0.27 0.67 0.4 1.39 0.4 2.17s-0.13 1.5-0.4 2.17c-0.27 0.67-0.64 1.24-1.13 1.73 -0.48 0.48-1.05 0.86-1.71 1.13C140.6 34.37 139.88 34.51 139.09 34.51zM139.09 33.37c0.61 0 1.16-0.11 1.66-0.34 0.5-0.22 0.93-0.53 1.29-0.92 0.36-0.39 0.64-0.85 0.84-1.37 0.2-0.52 0.3-1.08 0.3-1.67 0-0.59-0.1-1.15-0.3-1.67 -0.2-0.52-0.48-0.98-0.84-1.37 -0.36-0.39-0.79-0.7-1.29-0.92s-1.05-0.34-1.66-0.34c-0.6 0-1.16 0.11-1.66 0.34 -0.5 0.22-0.93 0.53-1.29 0.92 -0.36 0.39-0.64 0.85-0.84 1.37 -0.2 0.52-0.3 1.08-0.3 1.68 0 0.6 0.1 1.15 0.3 1.68 0.2 0.52 0.48 0.98 0.84 1.37 0.36 0.39 0.79 0.7 1.29 0.92C137.93 33.26 138.48 33.37 139.09 33.37z"/>
  <path fill="#363534" d="M61.71 18.48h-9.69c-1.25 0-2.4-0.18-3.47-0.55 -1.06-0.37-1.98-0.91-2.74-1.61 -0.77-0.71-1.37-1.56-1.81-2.57 -0.44-1.01-0.65-2.16-0.65-3.46 0-1.2 0.22-2.31 0.67-3.32 0.44-1.01 1.05-1.87 1.82-2.6 0.77-0.72 1.67-1.28 2.71-1.68s2.15-0.6 3.34-0.6 2.3 0.2 3.34 0.61 1.94 0.97 2.71 1.69 1.37 1.59 1.82 2.59c0.44 1 0.67 2.1 0.67 3.31 0 0.57-0.06 1.13-0.19 1.67 -0.13 0.54-0.32 1.05-0.58 1.54 -0.26 0.48-0.59 0.92-0.99 1.3 -0.41 0.38-0.88 0.7-1.42 0.94v0.05h4.47V18.48zM47.01 10.28c0 0.69 0.13 1.34 0.38 1.94 0.26 0.6 0.61 1.13 1.05 1.57 0.44 0.44 0.96 0.8 1.55 1.05 0.59 0.26 1.22 0.38 1.9 0.38s1.31-0.13 1.9-0.38c0.59-0.26 1.1-0.61 1.55-1.05 0.44-0.44 0.79-0.97 1.05-1.57 0.26-0.6 0.38-1.25 0.38-1.94s-0.13-1.34-0.38-1.94c-0.26-0.6-0.61-1.13-1.05-1.57 -0.44-0.44-0.96-0.79-1.55-1.05 -0.59-0.26-1.22-0.38-1.9-0.38s-1.31 0.13-1.9 0.38c-0.59 0.26-1.1 0.61-1.55 1.05C48 7.21 47.65 7.73 47.39 8.34 47.14 8.94 47.01 9.58 47.01 10.28z"/>
  <path fill="#363534" d="M76.94 12.31c0 0.95-0.14 1.82-0.43 2.62 -0.29 0.8-0.71 1.49-1.28 2.08 -0.56 0.59-1.27 1.05-2.11 1.38 -0.84 0.33-1.81 0.5-2.91 0.5 -1.11 0-2.09-0.17-2.94-0.5 -0.84-0.33-1.55-0.79-2.11-1.38 -0.56-0.59-0.99-1.28-1.28-2.08 -0.29-0.8-0.43-1.67-0.43-2.62V2.48h3.52v9.69c0 0.5 0.08 0.96 0.24 1.38 0.16 0.42 0.38 0.79 0.67 1.1 0.29 0.31 0.63 0.55 1.03 0.72 0.4 0.17 0.83 0.26 1.3 0.26 0.47 0 0.9-0.09 1.29-0.26 0.39-0.17 0.73-0.41 1.02-0.72 0.29-0.31 0.51-0.67 0.67-1.1 0.16-0.42 0.24-0.88 0.24-1.38V2.48h3.52V12.31z"/>
  <path fill="#363534" d="M80.14 2.48h3.52v15.99h-3.52V2.48z"/>
  <path fill="#363534" d="M87.01 2.48h3.52v12.74h6.53v3.25H87.01V2.48z"/>
  <path fill="#363534" d="M99 2.48h5.33l3.68 10.44h0.05l3.7-10.43h5.31v15.99h-3.52V6.21h-0.04l-4.2 12.27h-2.69L102.57 6.21h-0.04v12.27h-3.52V2.48z"/>
  <path fill="#363534" d="M120.46 2.48h10.86v3.25h-7.34v2.98h6.93v3.25h-6.93v3.25h7.75v3.25h-11.27V2.48z"/>
  <path fill="#363534" d="M142.46 6.39c-0.29-0.36-0.67-0.63-1.16-0.8 -0.49-0.17-0.95-0.26-1.39-0.26 -0.26 0-0.52 0.03-0.79 0.09 -0.27 0.06-0.53 0.16-0.77 0.28 -0.24 0.13-0.44 0.3-0.59 0.51 -0.15 0.21-0.23 0.47-0.23 0.77 0 0.48 0.18 0.85 0.54 1.11 0.36 0.26 0.82 0.47 1.37 0.66 0.55 0.18 1.14 0.36 1.77 0.54 0.63 0.18 1.22 0.44 1.77 0.77 0.55 0.33 1 0.78 1.37 1.33 0.36 0.56 0.54 1.3 0.54 2.24 0 0.89-0.16 1.66-0.5 2.33 -0.33 0.66-0.78 1.21-1.34 1.65s-1.22 0.76-1.96 0.97c-0.74 0.21-1.53 0.32-2.36 0.32 -1.04 0-2-0.16-2.89-0.47 -0.89-0.32-1.72-0.83-2.48-1.53l2.51-2.75c0.36 0.48 0.82 0.86 1.37 1.12 0.55 0.26 1.12 0.4 1.71 0.4 0.29 0 0.58-0.03 0.87-0.1 0.29-0.07 0.56-0.17 0.79-0.3 0.23-0.14 0.42-0.31 0.56-0.52 0.14-0.21 0.22-0.46 0.22-0.74 0-0.48-0.18-0.86-0.55-1.14 -0.37-0.28-0.83-0.51-1.39-0.71 -0.56-0.2-1.16-0.39-1.81-0.59 -0.65-0.19-1.25-0.46-1.81-0.79 -0.56-0.33-1.02-0.77-1.39-1.31 -0.37-0.54-0.55-1.26-0.55-2.14 0-0.86 0.17-1.61 0.51-2.26s0.79-1.19 1.36-1.63c0.56-0.44 1.22-0.76 1.95-0.98 0.74-0.22 1.5-0.33 2.28-0.33 0.9 0 1.78 0.13 2.62 0.38 0.84 0.26 1.6 0.69 2.28 1.29L142.46 6.39z"/>
</svg>
