<svg version="1.1" id="Layer_1" xmlns="http://www.w3.org/2000/svg" xmlns:xlink="http://www.w3.org/1999/xlink" x="0" y="0" width="140" height="48" viewBox="0 0 140 48" enable-background="new 0 0 140 48" xml:space="preserve">
  <path fill="#7C7C7B" d="M52.91 13.09h4.73c0.74 0 1.44 0.07 2.11 0.21 0.67 0.14 1.26 0.38 1.78 0.72 0.52 0.34 0.93 0.79 1.24 1.35 0.31 0.56 0.46 1.26 0.46 2.08 0 0.87-0.17 1.59-0.5 2.16 -0.33 0.57-0.75 1.02-1.27 1.35 -0.52 0.33-1.08 0.56-1.7 0.7s-1.2 0.2-1.76 0.2h-3.2v7.16h-1.89V13.09zM54.81 20.12h3.2c0.95 0 1.72-0.21 2.31-0.64 0.59-0.43 0.89-1.09 0.89-1.99 0-0.9-0.3-1.57-0.89-1.99 -0.59-0.43-1.36-0.64-2.31-0.64h-3.2V20.12z"/>
  <path fill="#7C7C7B" d="M72.56 29.45c-1.22 0-2.33-0.21-3.34-0.63 -1.01-0.42-1.89-1-2.63-1.75 -0.74-0.74-1.32-1.63-1.73-2.66 -0.41-1.03-0.62-2.14-0.62-3.34 0-1.2 0.21-2.32 0.62-3.34 0.41-1.03 0.99-1.91 1.74-2.66 0.74-0.74 1.62-1.33 2.64-1.75 1.01-0.42 2.13-0.63 3.35-0.63 1.22 0 2.33 0.21 3.35 0.63 1.01 0.42 1.89 1 2.64 1.75 0.74 0.74 1.32 1.63 1.73 2.66 0.41 1.03 0.62 2.15 0.62 3.35 0 1.2-0.21 2.32-0.62 3.35 -0.41 1.03-0.99 1.92-1.73 2.66 -0.74 0.74-1.62 1.33-2.64 1.75C74.89 29.24 73.77 29.45 72.56 29.45zM72.56 27.69c0.93 0 1.78-0.17 2.56-0.52 0.77-0.35 1.44-0.82 1.99-1.42s0.99-1.3 1.3-2.11c0.31-0.8 0.46-1.66 0.46-2.58 0-0.92-0.15-1.78-0.46-2.58 -0.31-0.8-0.74-1.5-1.3-2.11 -0.56-0.6-1.22-1.07-1.99-1.42 -0.77-0.35-1.63-0.52-2.56-0.52S70.77 14.62 70 14.96c-0.77 0.35-1.44 0.82-1.99 1.42 -0.56 0.6-0.99 1.3-1.29 2.11 -0.31 0.8-0.46 1.66-0.46 2.58 0 0.92 0.15 1.78 0.46 2.58 0.31 0.8 0.74 1.51 1.3 2.11 0.56 0.6 1.22 1.07 1.99 1.42C70.77 27.52 71.63 27.69 72.56 27.69z"/>
  <path fill="#7C7C7B" d="M82.81 13.09h4.08c0.77 0 1.53 0.05 2.29 0.14s1.44 0.29 2.04 0.59c0.6 0.3 1.09 0.74 1.46 1.32 0.38 0.58 0.56 1.36 0.56 2.35 0 1.17-0.35 2.12-1.06 2.84 -0.71 0.72-1.68 1.18-2.93 1.37l4.53 7.34h-2.32l-4.32-7.16h-2.43v7.16h-1.89V13.09zM84.7 20.12h1.69c0.53 0 1.07-0.01 1.63-0.05 0.56-0.03 1.08-0.13 1.55-0.29s0.86-0.42 1.17-0.78c0.31-0.35 0.46-0.86 0.46-1.52 0-0.57-0.11-1.03-0.34-1.37 -0.22-0.35-0.52-0.61-0.89-0.8 -0.37-0.19-0.78-0.31-1.24-0.37 -0.46-0.06-0.92-0.09-1.38-0.09h-2.66V20.12z"/>
  <path fill="#7C7C7B" d="M95.76 13.09h4.01l3.94 10.45h0.05l4.01-10.45h3.76l-6.58 15.95h-2.82L95.76 13.09z"/>
  <path fill="#7C7C7B" d="M111.21 21.07c0-1.28 0.21-2.43 0.64-3.47 0.43-1.03 1.02-1.92 1.79-2.65 0.77-0.73 1.68-1.29 2.73-1.68 1.05-0.39 2.2-0.59 3.45-0.59 1.25 0 2.4 0.2 3.45 0.59 1.05 0.39 1.96 0.95 2.73 1.68 0.77 0.73 1.36 1.61 1.79 2.65 0.43 1.04 0.64 2.19 0.64 3.47 0 1.28-0.21 2.43-0.64 3.47 -0.43 1.03-1.02 1.92-1.79 2.65 -0.77 0.73-1.67 1.29-2.73 1.68 -1.05 0.39-2.2 0.59-3.45 0.59 -1.25 0-2.4-0.19-3.45-0.59 -1.05-0.39-1.96-0.95-2.73-1.68 -0.76-0.73-1.36-1.61-1.79-2.65C111.43 23.5 111.21 22.35 111.21 21.07zM114.86 21.07c0 0.75 0.12 1.44 0.35 2.06s0.57 1.16 1 1.62c0.44 0.46 0.96 0.82 1.57 1.07 0.61 0.26 1.29 0.38 2.04 0.38 0.75 0 1.43-0.13 2.04-0.38 0.61-0.25 1.13-0.61 1.57-1.07 0.44-0.46 0.77-1 1-1.62 0.23-0.62 0.35-1.31 0.35-2.06 0-0.73-0.12-1.42-0.35-2.05 -0.23-0.63-0.57-1.17-1-1.63 -0.44-0.46-0.96-0.81-1.57-1.07 -0.61-0.25-1.29-0.38-2.04-0.38 -0.75 0-1.43 0.13-2.04 0.38 -0.61 0.26-1.13 0.61-1.57 1.07 -0.44 0.46-0.77 1-1 1.63C114.98 19.65 114.86 20.33 114.86 21.07z"/>
  <path fill="#7C7C7B" d="M137.57 16.99c-0.29-0.36-0.67-0.63-1.16-0.8 -0.49-0.17-0.95-0.26-1.38-0.26 -0.26 0-0.52 0.03-0.79 0.09 -0.27 0.06-0.53 0.15-0.77 0.28 -0.24 0.13-0.43 0.3-0.58 0.51 -0.15 0.21-0.22 0.47-0.22 0.77 0 0.48 0.18 0.85 0.54 1.1 0.36 0.26 0.82 0.47 1.36 0.65 0.55 0.18 1.14 0.36 1.77 0.54 0.63 0.18 1.22 0.44 1.77 0.77 0.55 0.33 1 0.77 1.36 1.33C139.82 22.53 140 23.27 140 24.2c0 0.89-0.16 1.66-0.5 2.32 -0.33 0.66-0.78 1.21-1.34 1.65 -0.56 0.44-1.22 0.76-1.96 0.97 -0.74 0.21-1.53 0.32-2.35 0.32 -1.04 0-2-0.16-2.88-0.47 -0.89-0.32-1.71-0.83-2.48-1.53l2.5-2.75c0.36 0.48 0.82 0.85 1.36 1.12 0.55 0.26 1.12 0.39 1.7 0.39 0.28 0 0.57-0.04 0.87-0.1 0.29-0.07 0.56-0.17 0.79-0.3 0.23-0.13 0.42-0.31 0.56-0.52 0.14-0.21 0.21-0.46 0.21-0.74 0-0.48-0.18-0.86-0.55-1.14 -0.37-0.28-0.83-0.51-1.38-0.71 -0.56-0.19-1.16-0.39-1.8-0.58 -0.65-0.2-1.25-0.46-1.8-0.79 -0.56-0.33-1.02-0.77-1.38-1.31 -0.37-0.54-0.55-1.25-0.55-2.14 0-0.85 0.17-1.61 0.51-2.25 0.34-0.65 0.79-1.19 1.35-1.62 0.56-0.44 1.21-0.76 1.95-0.98 0.74-0.22 1.49-0.33 2.28-0.33 0.9 0 1.77 0.13 2.61 0.38 0.84 0.26 1.6 0.68 2.27 1.28L137.57 16.99z"/>
  <path fill="#7C7C7B" d="M7.1 42.72c0 0 12.02 11.62 28.26 0H7.1z"/>
  <path fill="#7C7C7B" d="M35.82 6.2c-0.28-0.28-0.63-0.49-0.93-0.76 -1.68-1.49-3.56-2.76-5.68-3.66 -2.63-1.1-5.45-1.67-8.36-1.67 -2.91 0-5.73 0.57-8.35 1.67C9.99 2.84 7.76 4.32 5.88 6.2 2.06 9.98 0 14.95 0 20.19c0 5.24 2.06 10.2 5.88 13.99 0.28 0.28 0.63 0.49 0.93 0.76 1.68 1.49 3.56 2.76 5.69 3.66 2.63 1.1 5.45 1.67 8.36 1.67 2.91 0 5.73-0.57 8.36-1.67 2.5-1.06 4.73-2.55 6.61-4.42 3.81-3.79 5.88-8.76 5.88-13.99C41.69 14.95 39.63 9.98 35.82 6.2zM20.85 35.44c-7.82 0-14.75-6.58-14.75-15.25 0-8.66 6.93-15.25 14.75-15.25 7.82 0 14.76 6.59 14.76 15.25C35.6 28.85 28.67 35.44 20.85 35.44z"/>
</svg>
