<?xml version="1.0" encoding="utf-8"?>
<!-- Generator: Adobe Illustrator 16.0.0, SVG Export Plug-In . SVG Version: 6.00 Build 0)  -->
<!DOCTYPE svg PUBLIC "-//W3C//DTD SVG 1.1//EN" "http://www.w3.org/Graphics/SVG/1.1/DTD/svg11.dtd">
<svg version="1.1" id="Capa_1" xmlns="http://www.w3.org/2000/svg" xmlns:xlink="http://www.w3.org/1999/xlink" x="0px" y="0px"
	 width="18px" height="18px" viewBox="0 0 18 18" enable-background="new 0 0 18 18" xml:space="preserve">
<path fill="#727170" d="M18,16.908l-5.311-5.315c0.975-1.219,1.561-2.771,1.561-4.458C14.25,3.192,11.058,0,7.125,0
	C3.188,0,0,3.197,0,7.135s3.192,7.134,7.125,7.134c1.697,0,3.253-0.595,4.477-1.584L16.908,18L18,16.908z M2.615,11.653
	C1.411,10.448,0.75,8.846,0.75,7.14c0-1.707,0.666-3.31,1.865-4.515c1.2-1.204,2.809-1.875,4.51-1.875
	c1.702,0,3.305,0.666,4.51,1.87C12.839,3.825,13.5,5.429,13.5,7.135s-0.665,3.31-1.865,4.514c-1.205,1.205-2.808,1.87-4.51,1.87
	C5.424,13.523,3.82,12.858,2.615,11.653z"/>
</svg>
