<?xml version="1.0" encoding="utf-8"?>
<!-- Generator: Adobe Illustrator 16.0.0, SVG Export Plug-In . SVG Version: 6.00 Build 0)  -->
<!DOCTYPE svg PUBLIC "-//W3C//DTD SVG 1.1//EN" "http://www.w3.org/Graphics/SVG/1.1/DTD/svg11.dtd">
<svg version="1.1" id="Capa_1" xmlns="http://www.w3.org/2000/svg" xmlns:xlink="http://www.w3.org/1999/xlink" x="0px" y="0px"
	 width="15.428px" height="24px" viewBox="0 0 15.428 24" enable-background="new 0 0 15.428 24" xml:space="preserve">
<g>
	<path fill="#C0C0C0" d="M7.714,0.857c1.832,0,3.554,0.713,4.849,2.008c1.295,1.295,2.008,3.017,2.008,4.849
		c0,2.299-1.291,5.739-3.732,9.947C9.645,19.718,8.44,21.5,7.714,22.533c-0.724-1.03-1.924-2.803-3.115-4.855
		c-2.448-4.216-3.741-7.66-3.741-9.963c0-1.832,0.713-3.554,2.008-4.849C4.161,1.57,5.883,0.857,7.714,0.857 M7.714,0
		C3.454,0,0,3.454,0,7.714C0,13.714,7.714,24,7.714,24s7.714-10.285,7.714-16.285C15.428,3.454,11.975,0,7.714,0L7.714,0z"/>
	<path fill="#C0C0C0" d="M7.714,4.286c-1.891,0-3.428,1.537-3.428,3.428s1.537,3.429,3.428,3.429c1.892,0,3.429-1.538,3.429-3.429
		S9.606,4.286,7.714,4.286z M7.714,10.227c-1.387,0-2.512-1.125-2.512-2.513c0-1.387,1.125-2.512,2.512-2.512
		c1.388,0,2.513,1.125,2.513,2.512C10.227,9.102,9.102,10.227,7.714,10.227z"/>
</g>
</svg>
