<?xml version="1.0" encoding="utf-8"?>
<!-- Generator: Adobe Illustrator 16.0.0, SVG Export Plug-In . SVG Version: 6.00 Build 0)  -->
<!DOCTYPE svg PUBLIC "-//W3C//DTD SVG 1.1//EN" "http://www.w3.org/Graphics/SVG/1.1/DTD/svg11.dtd">
<svg version="1.1" id="Capa_1" xmlns="http://www.w3.org/2000/svg" xmlns:xlink="http://www.w3.org/1999/xlink" x="0px" y="0px"
	 width="168.281px" height="25.855px" viewBox="0 0 168.281 25.855" enable-background="new 0 0 168.281 25.855"
	 xml:space="preserve">
<rect x="0.202" y="15.176" fill="#757473" width="1.267" height="10.679"/>
<polygon fill="#757473" points="4.878,15.176 6.478,15.176 12.661,24.046 12.691,24.046 12.691,15.176 13.959,15.176 13.959,25.855 
	12.359,25.855 6.175,16.986 6.146,16.986 6.146,25.855 4.878,25.855 "/>
<polygon fill="#757473" points="24.532,16.353 21.003,16.353 21.003,25.855 19.736,25.855 19.736,16.353 16.207,16.353 
	16.207,15.177 24.532,15.177 "/>
<polygon fill="#757473" points="26.78,15.176 33.492,15.176 33.492,16.353 28.047,16.353 28.047,19.701 33.13,19.701 33.13,20.878 
	28.047,20.878 28.047,24.679 33.764,24.679 33.764,25.855 26.78,25.855 "/>
<polygon fill="#757473" points="36.478,15.176 38.077,15.176 44.261,24.046 44.291,24.046 44.291,15.176 45.559,15.176 
	45.559,25.855 43.959,25.855 37.775,16.986 37.745,16.986 37.745,25.855 36.478,25.855 "/>
<path fill="#757473" d="M48.772,15.176h4.103c0.352,0,0.723,0.04,1.116,0.121c0.392,0.08,0.782,0.208,1.169,0.385
	c0.387,0.177,0.759,0.404,1.116,0.687c0.357,0.281,0.671,0.621,0.943,1.017c0.271,0.398,0.488,0.856,0.649,1.374
	c0.16,0.518,0.241,1.104,0.241,1.758c0,0.652-0.081,1.238-0.241,1.757c-0.161,0.518-0.378,0.975-0.649,1.373
	c-0.272,0.396-0.586,0.735-0.943,1.017c-0.357,0.282-0.729,0.512-1.116,0.688c-0.387,0.176-0.777,0.304-1.169,0.384
	c-0.393,0.081-0.764,0.121-1.116,0.121h-4.103V15.176z M50.039,24.679h2.413c0.613,0,1.182-0.08,1.705-0.241
	c0.523-0.16,0.975-0.409,1.357-0.746c0.382-0.337,0.684-0.768,0.905-1.29c0.221-0.523,0.332-1.151,0.332-1.885
	c0-0.734-0.111-1.363-0.332-1.887c-0.221-0.522-0.523-0.952-0.905-1.29c-0.382-0.336-0.834-0.585-1.357-0.746
	c-0.523-0.16-1.092-0.241-1.705-0.241h-2.413V24.679z"/>
<polygon fill="#757473" points="60.898,15.176 67.611,15.176 67.611,16.353 62.166,16.353 62.166,19.701 67.249,19.701 
	67.249,20.878 62.166,20.878 62.166,24.679 67.883,24.679 67.883,25.855 60.898,25.855 "/>
<polygon fill="#757473" points="70.598,15.176 72.196,15.176 78.38,24.046 78.411,24.046 78.411,15.176 79.679,15.176 
	79.679,25.855 78.079,25.855 71.895,16.986 71.864,16.986 71.864,25.855 70.598,25.855 "/>
<polygon fill="#757473" points="90.252,16.353 86.723,16.353 86.723,25.855 85.455,25.855 85.455,16.353 81.925,16.353 
	81.925,15.177 90.252,15.177 "/>
<polygon fill="#757473" points="92.498,15.176 99.211,15.176 99.211,16.353 93.766,16.353 93.766,19.701 98.849,19.701 
	98.849,20.878 93.766,20.878 93.766,24.679 99.482,24.679 99.482,25.855 92.498,25.855 "/>
<polygon fill="#757473" points="0,0.281 3.687,0.281 6.234,7.499 6.265,7.499 8.827,0.281 12.498,0.281 12.498,11.342 
	10.061,11.342 10.061,2.859 10.03,2.859 7.124,11.342 5.265,11.342 2.468,2.859 2.437,2.859 2.437,11.342 0,11.342 "/>
<path fill="#757473" d="M18.075,0.282h2.015l4.811,11.06h-2.749l-0.953-2.343h-4.296l-0.922,2.343h-2.687L18.075,0.282z
	 M19.012,3.499l-1.344,3.438h2.703L19.012,3.499z"/>
<path fill="#757473" d="M25.699,0.281h4.28c0.563,0,1.096,0.056,1.602,0.164c0.505,0.109,0.947,0.292,1.328,0.546
	c0.379,0.257,0.681,0.601,0.905,1.031c0.225,0.434,0.337,0.972,0.337,1.618c0,0.78-0.203,1.444-0.61,1.991
	c-0.406,0.547-1,0.894-1.781,1.039l2.812,4.671H31.65l-2.312-4.421h-1.203v4.421h-2.437V0.281z M28.136,4.858h1.437
	c0.219,0,0.451-0.007,0.695-0.022c0.245-0.017,0.466-0.063,0.664-0.142s0.362-0.2,0.493-0.367c0.129-0.167,0.195-0.4,0.195-0.702
	c0-0.281-0.058-0.506-0.172-0.672c-0.115-0.168-0.261-0.295-0.438-0.383c-0.177-0.089-0.38-0.148-0.609-0.18
	c-0.229-0.032-0.453-0.047-0.672-0.047h-1.593V4.858z"/>
<polygon fill="#757473" points="37.649,2.438 34.494,2.438 34.494,0.281 43.242,0.281 43.242,2.438 40.086,2.438 40.086,11.342 
	37.649,11.342 "/>
<rect x="44.133" y="0.282" fill="#757473" width="2.437" height="11.06"/>
<polygon fill="#757473" points="48.476,0.281 51.787,0.281 56.489,7.968 56.521,7.968 56.521,0.281 58.958,0.281 58.958,11.342 
	55.771,11.342 50.943,3.469 50.912,3.469 50.912,11.342 48.476,11.342 "/>
<rect x="60.864" y="0.282" fill="#757473" width="2.437" height="11.06"/>
<path fill="#757473" d="M68.847,0.282h2.015l4.811,11.06h-2.749l-0.953-2.343h-4.296l-0.922,2.343h-2.687L68.847,0.282z
	 M69.784,3.499L68.44,6.937h2.703L69.784,3.499z"/>
<polygon fill="#757473" points="76.471,0.281 79.783,0.281 84.485,7.968 84.517,7.968 84.517,0.281 86.953,0.281 86.953,11.342 
	83.767,11.342 78.938,3.469 78.908,3.469 78.908,11.342 76.471,11.342 "/>
<path fill="#757473" d="M88.297,5.812c0-0.885,0.148-1.688,0.445-2.405c0.296-0.72,0.71-1.33,1.242-1.835
	c0.531-0.506,1.161-0.895,1.89-1.165C92.604,0.136,93.4,0,94.264,0c0.865,0,1.662,0.136,2.391,0.406
	c0.73,0.271,1.359,0.659,1.891,1.165c0.531,0.505,0.945,1.115,1.242,1.835c0.296,0.718,0.445,1.521,0.445,2.405
	c0,0.886-0.149,1.688-0.445,2.405c-0.297,0.719-0.711,1.331-1.242,1.836s-1.16,0.895-1.891,1.164
	c-0.729,0.271-1.525,0.406-2.391,0.406c-0.863,0-1.66-0.135-2.39-0.406c-0.729-0.27-1.358-0.659-1.89-1.164
	c-0.532-0.505-0.946-1.117-1.242-1.836C88.445,7.499,88.297,6.697,88.297,5.812 M90.827,5.812c0,0.521,0.081,0.997,0.243,1.43
	c0.161,0.432,0.393,0.808,0.693,1.125c0.303,0.317,0.664,0.565,1.086,0.741c0.423,0.178,0.894,0.267,1.414,0.267
	c0.521,0,0.992-0.089,1.414-0.267c0.422-0.176,0.783-0.424,1.086-0.741s0.533-0.693,0.695-1.125c0.161-0.433,0.242-0.908,0.242-1.43
	c0-0.51-0.081-0.984-0.242-1.421c-0.162-0.438-0.393-0.815-0.695-1.134c-0.303-0.317-0.664-0.564-1.086-0.741
	s-0.893-0.267-1.414-0.267c-0.521,0-0.991,0.09-1.414,0.267c-0.422,0.177-0.783,0.424-1.086,0.741
	c-0.301,0.318-0.532,0.696-0.693,1.134C90.908,4.827,90.827,5.302,90.827,5.812"/>
<polygon fill="#757473" points="105.887,0.281 109.574,0.281 112.12,7.499 112.152,7.499 114.714,0.281 118.385,0.281 
	118.385,11.342 115.947,11.342 115.947,2.859 115.917,2.859 113.011,11.342 111.152,11.342 108.355,2.859 108.324,2.859 
	108.324,11.342 105.887,11.342 "/>
<path fill="#757473" d="M119.729,5.812c0-0.885,0.148-1.688,0.445-2.405c0.296-0.72,0.71-1.33,1.242-1.835
	c0.531-0.506,1.161-0.895,1.891-1.165C124.035,0.136,124.832,0,125.695,0c0.865,0,1.662,0.136,2.391,0.406
	c0.73,0.271,1.359,0.659,1.891,1.165c0.531,0.505,0.945,1.115,1.242,1.835c0.297,0.718,0.445,1.521,0.445,2.405
	c0,0.886-0.148,1.688-0.445,2.405c-0.297,0.719-0.711,1.331-1.242,1.836s-1.16,0.895-1.891,1.164
	c-0.729,0.271-1.525,0.406-2.391,0.406c-0.863,0-1.66-0.135-2.389-0.406c-0.729-0.27-1.359-0.659-1.891-1.164
	c-0.532-0.505-0.946-1.117-1.242-1.836C119.877,7.499,119.729,6.697,119.729,5.812 M122.259,5.812c0,0.521,0.081,0.997,0.242,1.43
	c0.162,0.432,0.394,0.808,0.694,1.125c0.303,0.317,0.664,0.565,1.086,0.741c0.423,0.178,0.894,0.267,1.414,0.267
	c0.521,0,0.992-0.089,1.414-0.267c0.422-0.176,0.783-0.424,1.086-0.741s0.533-0.693,0.695-1.125c0.161-0.433,0.242-0.908,0.242-1.43
	c0-0.51-0.081-0.984-0.242-1.421c-0.162-0.438-0.393-0.815-0.695-1.134c-0.303-0.317-0.664-0.564-1.086-0.741
	s-0.893-0.267-1.414-0.267c-0.521,0-0.991,0.09-1.414,0.267c-0.422,0.177-0.783,0.424-1.086,0.741
	c-0.301,0.318-0.532,0.696-0.694,1.134C122.34,4.827,122.259,5.302,122.259,5.812"/>
<polygon fill="#757473" points="133.102,0.281 135.538,0.281 135.538,9.093 140.053,9.093 140.053,11.342 133.102,11.342 "/>
<rect x="141.053" y="0.282" fill="#757473" width="2.438" height="11.06"/>
<polygon fill="#757473" points="145.396,0.281 148.707,0.281 153.409,7.968 153.441,7.968 153.441,0.281 155.879,0.281 
	155.879,11.342 152.691,11.342 147.863,3.469 147.832,3.469 147.832,11.342 145.396,11.342 "/>
<path fill="#757473" d="M161.455,0.282h2.016l4.811,11.06h-2.749l-0.953-2.343h-4.296l-0.922,2.343h-2.688L161.455,0.282z
	 M162.393,3.499l-1.344,3.438h2.703L162.393,3.499z"/>
</svg>
