<?xml version="1.0" encoding="utf-8"?>
<!-- Generator: Adobe Illustrator 16.0.0, SVG Export Plug-In . SVG Version: 6.00 Build 0)  -->
<!DOCTYPE svg PUBLIC "-//W3C//DTD SVG 1.1//EN" "http://www.w3.org/Graphics/SVG/1.1/DTD/svg11.dtd">
<svg version="1.1" id="Capa_1" xmlns="http://www.w3.org/2000/svg" xmlns:xlink="http://www.w3.org/1999/xlink" x="0px" y="0px"
	 width="22px" height="22px" viewBox="0 0 22 22" enable-background="new 0 0 22 22" xml:space="preserve">
<g>
	<path fill="#C0C0C0" d="M11,0C4.924,0,0,4.924,0,11c0,6.077,4.924,11,11,11c6.078,0,11-4.923,11-11C22,4.924,17.078,0,11,0z
		 M11,21.085C5.442,21.085,0.915,16.563,0.915,11C0.915,5.442,5.437,0.915,11,0.915c5.558,0,10.085,4.521,10.085,10.085
		C21.085,16.558,16.558,21.085,11,21.085z"/>
	<polygon fill="#C0C0C0" points="11,11 5.924,11 5.924,11.915 11.915,11.915 11.915,4.231 11,4.231 	"/>
</g>
</svg>
