<svg version="1.1" id="Capa_1" xmlns="http://www.w3.org/2000/svg" xmlns:xlink="http://www.w3.org/1999/xlink" x="0px" y="0px"
	 width="22.003px" height="22px" viewBox="0 0 22.003 22" enable-background="new 0 0 22.003 22" xml:space="preserve">
<path fill="#C0C0C0" d="M20.998,15.962c-0.912-0.938-3.506-2.693-5.207-2.693c-0.393,0-0.736,0.088-1.018,0.269
	c-0.832,0.532-1.494,0.944-1.813,0.944c-0.176,0-0.363-0.156-0.775-0.513l-0.068-0.063c-1.144-0.993-1.388-1.249-1.832-1.712
	l-0.113-0.119c-0.081-0.082-0.149-0.156-0.219-0.225c-0.387-0.4-0.668-0.688-1.662-1.813L8.248,9.988
	C7.773,9.45,7.46,9.1,7.442,8.844c-0.02-0.25,0.199-0.656,0.756-1.413c0.675-0.912,0.7-2.038,0.081-3.343
	C7.786,3.057,6.979,2.069,6.266,1.2L6.204,1.125C5.591,0.375,4.879,0,4.085,0c-0.882,0-1.612,0.475-2,0.725
	C2.054,0.744,2.023,0.769,1.992,0.788c-0.869,0.55-1.5,1.306-1.737,2.075c-0.356,1.157-0.594,2.657,1.112,5.775
	c1.475,2.7,2.813,4.512,4.938,6.694c2,2.051,2.888,2.713,4.875,4.15c2.211,1.6,4.336,2.519,5.825,2.519c1.381,0,2.469,0,4.02-1.868
	C22.648,18.169,21.973,16.969,20.998,15.962z M20.279,19.456c-1.25,1.513-1.969,1.513-3.27,1.513c-1.268,0-3.236-0.875-5.262-2.331
	c-1.938-1.4-2.8-2.044-4.743-4.037c-2.057-2.107-3.351-3.863-4.775-6.469C0.723,5.375,0.891,4.169,1.198,3.175
	c0.162-0.531,0.65-1.1,1.313-1.512C2.542,1.644,2.573,1.619,2.61,1.6c0.332-0.212,0.882-0.569,1.481-0.569
	c0.5,0,0.944,0.25,1.369,0.769l0.063,0.075c1.594,1.95,2.837,3.675,1.899,4.95C6.76,7.719,6.411,8.325,6.466,8.95
	c0.05,0.606,0.456,1.063,1.069,1.75l0.043,0.05c1.007,1.138,1.294,1.438,1.694,1.844c0.068,0.069,0.138,0.144,0.219,0.226
	l0.112,0.118c0.463,0.481,0.719,0.743,1.894,1.774l0.069,0.063c0.5,0.438,0.869,0.757,1.406,0.757c0.557,0,1.168-0.351,2.332-1.094
	c0.117-0.075,0.287-0.118,0.5-0.118c1.355,0,3.693,1.55,4.512,2.393C21.066,17.476,21.441,18.05,20.279,19.456z"/>
</svg>
