<svg version="1.1" id="Layer_1" xmlns="http://www.w3.org/2000/svg" xmlns:xlink="http://www.w3.org/1999/xlink" x="0" y="0" width="40" height="40" viewBox="0 0 40 40" enable-background="new 0 0 40 40" xml:space="preserve">
  <path d="M20 0C8.95 0 0 8.95 0 20s8.95 20 20 20c11.05 0 20-8.95 20-20S31.05 0 20 0zM29.08 16.55c0.01 0.18 0.01 0.37 0.01 0.55 0 5.65-4.3 12.16-12.16 12.16 -2.41 0-4.65-0.71-6.54-1.93 0.34 0.04 0.68 0.06 1.02 0.06 2 0 3.85-0.68 5.31-1.83 -1.87-0.04-3.45-1.27-3.99-2.97 0.26 0.05 0.53 0.08 0.8 0.08 0.39 0 1.15-0.05 1.51-0.15C13.09 22.14 12 20.41 12 18.34c0-0.02 0-0.04 0-0.05 0 0.32 0.85 0.52 1.55 0.53 -1.15-0.77-2.1-2.08-2.1-3.56 0-0.78 0.12-1.52 0.48-2.15 2.1 2.59 5.21 4.29 8.76 4.47 -0.07-0.31-0.13-0.64-0.13-0.97 0-2.36 1.9-4.27 4.26-4.27 1.23 0 2.33 0.52 3.11 1.35 0.98-0.19 1.89-0.55 2.71-1.04 -0.32 1-1 1.84-1.88 2.36 0.86-0.11 1.68-0.33 2.45-0.67C30.63 15.2 29.91 15.95 29.08 16.55z"/>
</svg>
