<?xml version="1.0" encoding="utf-8"?>
<!-- Generator: Adobe Illustrator 16.0.0, SVG Export Plug-In . SVG Version: 6.00 Build 0)  -->
<!DOCTYPE svg PUBLIC "-//W3C//DTD SVG 1.1//EN" "http://www.w3.org/Graphics/SVG/1.1/DTD/svg11.dtd">
<svg version="1.1" id="Capa_1" xmlns="http://www.w3.org/2000/svg" xmlns:xlink="http://www.w3.org/1999/xlink" x="0px" y="0px"
	 width="20px" height="20px" viewBox="0 0 20 20" enable-background="new 0 0 20 20" xml:space="preserve">
<g>
	<g>
		<g>
			<g>
				<path fill="#989897" d="M0,10c0,5.523,4.476,10,10,10c5.523,0,10-4.477,10-10c0-5.524-4.477-10-10-10C4.476,0,0,4.476,0,10z
					 M0.832,10c0-5.053,4.115-9.168,9.168-9.168c5.053,0,9.168,4.111,9.168,9.168S15.053,19.168,10,19.168
					C4.947,19.168,0.832,15.053,0.832,10z"/>
			</g>
		</g>
		<g>
			<polygon fill="#989897" points="16.154,9.611 16.154,10.418 3.846,10.418 3.846,9.611 			"/>
		</g>
	</g>
</g>
</svg>
