<?xml version="1.0" encoding="utf-8"?>
<!-- Generator: Adobe Illustrator 16.0.0, SVG Export Plug-In . SVG Version: 6.00 Build 0)  -->
<!DOCTYPE svg PUBLIC "-//W3C//DTD SVG 1.1//EN" "http://www.w3.org/Graphics/SVG/1.1/DTD/svg11.dtd">
<svg version="1.1" id="Capa_1" xmlns="http://www.w3.org/2000/svg" xmlns:xlink="http://www.w3.org/1999/xlink" x="0px" y="0px"
	 width="30px" height="30px" viewBox="0 0 30 30" enable-background="new 0 0 30 30" xml:space="preserve">
<g>
	<g>
		<g>
			<path fill="#FFFFFF" d="M15,0C6.714,0,0,6.714,0,15s6.714,15,15,15c8.287,0,15-6.714,15-15S23.287,0,15,0z M15,28.752
				C7.421,28.752,1.248,22.586,1.248,15C1.248,7.413,7.421,1.247,15,1.247c7.58,0,13.751,6.173,13.751,13.753
				C28.751,22.579,22.58,28.752,15,28.752z"/>
		</g>
	</g>
	<g>
		<polygon fill="#FFFFFF" points="15.584,5.769 14.373,5.769 14.373,14.416 5.77,14.416 5.77,15.627 14.373,15.627 14.373,24.23 
			15.584,24.23 15.584,15.627 24.23,15.627 24.23,14.416 15.584,14.416 		"/>
	</g>
</g>
</svg>
