<?xml version="1.0" encoding="utf-8"?>
<!-- Generator: Adobe Illustrator 16.0.0, SVG Export Plug-In . SVG Version: 6.00 Build 0)  -->
<!DOCTYPE svg PUBLIC "-//W3C//DTD SVG 1.1//EN" "http://www.w3.org/Graphics/SVG/1.1/DTD/svg11.dtd">
<svg version="1.1" id="Capa_1" xmlns="http://www.w3.org/2000/svg" xmlns:xlink="http://www.w3.org/1999/xlink" x="0px" y="0px"
	 width="20px" height="20px" viewBox="0 0 20 20" enable-background="new 0 0 20 20" xml:space="preserve">
<g>
	<g>
		<g>
			<g>
				<path fill="#A3AF35" d="M0,10c0,5.525,4.476,10,10,10s10-4.475,10-10c0-5.523-4.476-10-10-10S0,4.477,0,10z M0.832,10
					c0-5.053,4.115-9.168,9.168-9.168c5.052,0,9.167,4.11,9.167,9.168c0,5.058-4.115,9.167-9.167,9.167
					C4.947,19.167,0.832,15.052,0.832,10z"/>
			</g>
		</g>
		<g>
			<polygon fill="#A3AF35" points="9.61,3.847 10.418,3.847 10.418,9.61 16.154,9.61 16.154,10.418 10.418,10.418 10.418,16.154 
				9.61,16.154 9.61,10.418 3.846,10.418 3.846,9.61 9.61,9.61 			"/>
		</g>
	</g>
</g>
</svg>
