<svg version="1.1" id="Layer_1" xmlns="http://www.w3.org/2000/svg" xmlns:xlink="http://www.w3.org/1999/xlink" x="0" y="0" width="40" height="40" viewBox="0 0 40 40" enable-background="new 0 0 40 40" xml:space="preserve">
  <polygon points="18 24.36 24.46 19.98 18 15.61 "/>
  <path d="M20 0C8.95 0 0 8.95 0 20s8.95 20 20 20c11.05 0 20-8.95 20-20S31.05 0 20 0zM31.25 24.75c0 2.01-1.47 3.63-3.3 3.63 -2.6 0.13-5.25 0.18-7.96 0.17 -2.7 0-5.36-0.05-7.96-0.17 -1.82 0-3.29-1.63-3.29-3.63 -0.11-1.59-0.16-3.18-0.15-4.76 0-1.59 0.05-3.17 0.16-4.76 0-2 1.48-3.85 3.29-3.85C14.51 11.27 17.04 11 19.6 11c0.13 0 0.27 0 0.4 0s0.27 0 0.4 0c2.57 0 5.09 0.27 7.56 0.38 1.82 0 3.3 1.72 3.3 3.73 0.11 1.59 0.16 3.23 0.15 4.82C31.41 21.52 31.36 23.16 31.25 24.75z"/>
</svg>
